<?xml version="1.0" standalone="no"?>
<!DOCTYPE svg PUBLIC "-//W3C//DTD SVG 20010904//EN"
 "http://www.w3.org/TR/2001/REC-SVG-20010904/DTD/svg10.dtd">
<svg version="1.0" xmlns="http://www.w3.org/2000/svg"
 width="1024.000000pt" height="1024.000000pt" viewBox="0 0 1024.000000 1024.000000"
 preserveAspectRatio="xMidYMid meet">

<g transform="translate(0.000000,1024.000000) scale(0.100000,-0.100000)"
fill="#000000" stroke="none">
<path d="M5572 9468 c6 -18 28 -21 28 -4 0 9 -7 16 -16 16 -9 0 -14 -5 -12
-12z"/>
<path d="M5620 9470 c0 -5 5 -10 10 -10 6 0 10 5 10 10 0 6 -4 10 -10 10 -5 0
-10 -4 -10 -10z"/>
<path d="M5835 9450 c-10 -11 -21 -17 -25 -15 -5 3 -10 0 -12 -5 -2 -6 -24
-11 -50 -12 -51 -1 -68 -18 -46 -46 11 -13 10 -15 -11 -9 -14 3 -31 1 -38 -5
-7 -6 -13 -7 -13 -3 0 4 -7 2 -15 -5 -8 -7 -13 -16 -10 -20 3 -5 1 -11 -5 -15
-5 -3 -10 1 -10 9 0 28 -31 17 -41 -14 -11 -30 -49 -44 -49 -18 0 9 -3 9 -12
0 -7 -7 -20 -12 -30 -12 -13 0 -18 -8 -18 -25 0 -20 5 -25 25 -25 15 0 25 -6
25 -14 0 -20 -27 -39 -45 -32 -11 4 -15 -1 -15 -19 0 -20 -5 -25 -25 -25 -14
0 -25 -5 -25 -11 0 -6 -7 -9 -15 -5 -10 4 -15 -1 -15 -14 0 -11 -11 -27 -25
-36 -33 -21 -32 -28 8 -45 25 -11 31 -19 29 -37 -3 -20 0 -23 17 -17 12 4 21
2 21 -4 0 -6 -4 -11 -10 -11 -5 0 -10 -7 -10 -15 0 -20 -17 -19 -28 1 -9 17
-70 26 -78 12 -3 -5 0 -15 6 -23 24 -29 -12 -46 -50 -23 -15 10 -23 9 -39 -6
-21 -19 -21 -19 -21 9 0 42 43 107 84 129 27 14 35 24 30 35 -26 61 -10 97 51
118 35 11 39 22 20 47 -17 22 -25 18 -28 -12 -1 -17 -5 -18 -24 -11 -17 6 -23
5 -23 -5 0 -15 -21 -26 -52 -26 -15 0 -19 -5 -15 -20 4 -17 0 -20 -31 -20 -47
-1 -79 -22 -58 -39 8 -7 25 -9 40 -5 34 8 64 -13 42 -30 -8 -6 -16 -20 -18
-31 -2 -11 -10 -19 -17 -17 -8 2 -22 -5 -32 -14 -11 -10 -25 -14 -36 -10 -9 4
-15 4 -11 1 12 -12 -32 -46 -52 -40 -10 3 -22 0 -26 -7 -4 -6 -2 -14 4 -16 24
-8 11 -22 -14 -16 -19 5 -25 4 -20 -5 4 -6 20 -11 36 -11 16 0 32 -4 35 -10 3
-5 22 -10 42 -10 27 0 42 -7 59 -27 13 -16 24 -22 24 -15 0 9 7 11 19 7 11 -3
21 0 24 8 3 9 16 12 37 9 22 -3 30 -9 26 -19 -5 -12 0 -13 24 -8 17 4 30 3 30
-2 0 -11 80 -33 121 -33 19 0 37 8 48 21 12 15 25 20 46 16 28 -4 29 -5 8 -12
-26 -9 -30 -20 -8 -29 23 -9 18 -28 -6 -21 -17 6 -20 3 -17 -17 2 -19 -1 -23
-20 -20 -22 2 -23 -1 -17 -30 10 -45 16 -53 29 -37 6 8 20 19 31 26 11 6 19
16 17 22 -1 6 7 11 18 11 14 0 20 6 18 18 -2 11 3 17 15 16 63 -3 65 -4 77
-40 12 -34 13 -35 31 -18 17 15 22 16 46 3 26 -13 48 -29 77 -54 6 -5 20 -11
31 -13 11 -2 37 -8 58 -13 34 -9 37 -12 25 -26 -12 -15 -11 -15 10 -4 20 11
31 9 80 -15 31 -15 65 -36 75 -47 17 -20 17 -20 47 9 16 16 30 37 30 46 0 9 5
20 10 23 15 9 12 41 -4 54 -12 10 -11 20 5 64 19 50 24 173 8 183 -4 2 -5 23
-4 47 3 46 -7 67 -43 86 -15 8 -23 20 -22 34 5 52 0 65 -26 71 -17 5 -24 12
-20 21 10 27 -46 111 -66 99 -4 -3 -14 8 -22 23 -15 30 -50 63 -66 63 -28 0
-60 25 -60 47 0 28 -14 29 -47 3 -32 -25 -45 -18 -14 7 13 12 18 23 13 31 -7
9 -13 8 -27 -8z m-11 -94 c6 -23 0 -36 -18 -36 -7 0 -12 -10 -12 -22 1 -19 -5
-22 -44 -24 -35 -2 -49 -8 -68 -31 l-23 -28 -19 23 c-19 23 -19 25 -2 47 26
35 75 65 105 65 15 0 30 6 33 14 8 21 42 15 48 -8z m-64 -109 c0 -7 -10 -17
-22 -22 -13 -6 -23 -19 -23 -30 0 -16 8 -21 43 -23 25 -2 42 1 42 7 0 14 32
46 59 60 24 13 61 14 61 2 0 -23 -14 -41 -32 -41 -10 0 -16 -4 -13 -10 3 -5
-6 -27 -20 -47 -24 -36 -26 -37 -31 -15 -7 23 -19 29 -29 12 -3 -5 -13 -10
-22 -10 -8 0 -28 -11 -45 -25 -42 -36 -110 -36 -126 0 -16 34 -15 45 3 45 7 0
18 7 23 16 5 9 15 14 23 12 8 -3 22 -1 32 4 14 7 16 13 7 22 -15 19 -3 44 23
49 40 8 47 7 47 -6z m-223 -123 c3 -9 2 -19 -4 -23 -5 -3 -15 -21 -22 -38 -8
-19 -21 -33 -30 -33 -9 0 -23 -6 -30 -12 -10 -11 -12 -4 -9 32 3 39 7 47 33
59 17 8 32 18 33 23 6 13 22 9 29 -8z m285 -106 c7 -19 -3 -58 -13 -52 -5 3
-9 0 -9 -5 0 -6 -9 -11 -20 -11 -11 0 -20 7 -20 16 0 9 -5 13 -12 8 -7 -3 3 8
22 25 38 34 46 37 52 19z m-188 -7 c4 -5 0 -12 -6 -14 -7 -3 -3 -6 8 -6 17 -1
20 -6 16 -26 -3 -17 -11 -25 -24 -25 -12 0 -22 -9 -25 -20 -3 -12 -12 -19 -22
-18 -9 2 -15 -3 -13 -10 3 -17 -65 -13 -80 5 -17 21 9 70 43 82 16 6 37 17 45
26 17 17 50 20 58 6z"/>
<path d="M5836 9161 c-4 -7 -5 -15 -2 -18 9 -9 19 4 14 18 -4 11 -6 11 -12 0z"/>
<path d="M5473 9426 c3 -7 0 -19 -6 -25 -22 -22 4 -23 28 -1 19 18 22 26 13
32 -20 12 -41 9 -35 -6z"/>
<path d="M5420 9399 c0 -6 -8 -8 -19 -4 -15 4 -20 0 -23 -25 -5 -33 13 -40 45
-16 18 14 24 56 7 56 -5 0 -10 -5 -10 -11z"/>
<path d="M5270 9376 c-7 -9 -16 -14 -20 -11 -9 6 -35 -23 -28 -30 3 -3 22 2
43 11 38 16 53 10 55 -21 1 -5 5 0 10 13 5 12 16 22 25 22 8 0 15 4 15 9 0 4
-12 8 -27 8 -16 0 -35 3 -44 7 -10 4 -21 1 -29 -8z"/>
<path d="M5286 9335 c-3 -8 -1 -15 4 -15 6 0 10 7 10 15 0 8 -2 15 -4 15 -2 0
-6 -7 -10 -15z"/>
<path d="M5347 9333 c-4 -3 -7 -11 -7 -17 0 -6 5 -5 12 2 6 6 9 14 7 17 -3 3
-9 2 -12 -2z"/>
<path d="M5520 9305 c0 -8 4 -15 10 -15 5 0 7 7 4 15 -4 8 -8 15 -10 15 -2 0
-4 -7 -4 -15z"/>
<path d="M5177 9294 c-3 -3 -3 -13 0 -21 5 -12 7 -12 14 -1 15 23 4 40 -14 22z"/>
<path d="M5057 9153 c-4 -3 -7 -15 -7 -26 0 -13 5 -17 16 -13 9 3 20 6 25 6 5
0 4 9 -3 20 -14 21 -21 24 -31 13z"/>
<path d="M5010 9040 c-12 -8 -11 -10 7 -10 12 0 25 5 28 10 8 13 -15 13 -35 0z"/>
<path d="M5246 8975 c4 -8 10 -15 15 -15 4 0 6 7 3 15 -4 8 -10 15 -15 15 -4
0 -6 -7 -3 -15z"/>
<path d="M4945 8921 c-3 -5 -1 -12 5 -16 12 -7 30 2 30 16 0 12 -27 12 -35 0z"/>
<path d="M4860 8819 c-8 -5 -32 -16 -52 -24 -21 -9 -38 -22 -38 -31 0 -13 5
-12 30 6 33 23 39 17 14 -18 -18 -26 -31 -28 -54 -7 -10 9 -40 18 -68 22 -44
5 -51 3 -61 -16 -7 -11 -21 -21 -33 -21 -17 0 -18 2 -8 15 10 12 10 15 -4 15
-12 0 -16 -9 -16 -34 0 -20 -6 -36 -14 -39 -17 -7 -26 1 -26 24 0 23 -17 28
-70 20 -59 -9 -105 -38 -89 -57 7 -9 8 -14 1 -14 -6 0 -12 6 -15 13 -4 9 -8 9
-23 -1 -11 -7 -32 -20 -48 -30 -61 -36 -127 -116 -80 -98 13 5 14 1 9 -24 -8
-37 -3 -37 40 -4 20 15 32 31 28 40 -3 8 1 14 11 14 9 0 16 -4 16 -10 0 -18
35 -11 48 10 7 11 17 20 22 20 6 0 10 -9 10 -20 0 -11 5 -20 10 -20 11 0 14
-33 4 -43 -12 -11 -34 5 -34 26 0 19 -1 20 -20 2 -11 -10 -20 -29 -20 -42 0
-12 -4 -23 -8 -23 -4 0 -27 -19 -50 -42 -23 -22 -42 -36 -42 -30 0 22 -48 12
-79 -17 -17 -16 -38 -31 -47 -35 -14 -5 -14 -7 1 -22 15 -16 10 -33 -16 -54
-17 -13 -38 -83 -30 -98 7 -13 10 -12 20 6 6 11 24 23 41 27 16 4 30 10 30 13
0 4 12 12 26 19 23 11 27 10 31 -7 5 -19 6 -19 35 1 26 19 31 19 41 6 16 -20
85 -31 102 -17 10 9 20 7 39 -6 32 -20 51 -8 61 38 6 25 10 29 31 24 18 -5 24
-2 24 10 0 11 5 14 17 10 9 -4 20 -1 24 5 11 18 26 2 33 -36 4 -19 11 -35 16
-35 5 0 7 6 4 13 -7 20 34 53 48 39 18 -18 24 -15 47 24 14 24 27 34 36 30 8
-3 15 -1 15 4 0 6 4 10 9 10 6 0 6 -12 0 -32 -11 -40 4 -61 24 -34 21 28 47
16 63 -29 14 -43 8 -54 -31 -55 -15 -1 -11 -5 13 -15 31 -14 42 -38 22 -50 -5
-3 -10 -1 -10 4 0 6 -9 11 -20 11 -19 0 -25 -10 -20 -39 4 -32 -23 -61 -56
-61 -32 0 -33 -1 -22 -26 10 -22 9 -27 -5 -35 -9 -6 -17 -17 -17 -25 0 -12 -7
-14 -32 -9 l-33 7 20 -22 20 -23 -24 6 c-13 3 -32 2 -41 -3 -9 -5 -35 -10 -57
-12 -23 -3 -48 -10 -56 -16 -12 -10 -16 -9 -21 3 -3 8 -13 15 -22 15 -10 0
-14 5 -10 15 3 9 0 15 -9 15 -7 0 -19 17 -26 37 -22 67 -12 153 18 153 10 0
13 6 9 16 -3 9 -6 17 -6 20 0 2 -9 -4 -20 -14 -12 -9 -25 -18 -30 -18 -6 -1
-13 -2 -17 -3 -4 0 2 -8 13 -16 11 -8 14 -15 7 -15 -7 0 -13 -5 -13 -11 0 -6
-7 -17 -15 -26 -14 -14 -14 -16 2 -28 16 -12 15 -15 -11 -46 -16 -19 -37 -40
-47 -47 -11 -7 -19 -20 -19 -28 0 -8 -11 -14 -27 -15 -16 0 -22 -3 -15 -6 20
-8 14 -30 -10 -38 -13 -4 -25 -8 -28 -10 -38 -16 -44 -17 -47 -9 -2 6 -19 8
-37 6 -29 -3 -37 1 -52 24 -10 15 -21 48 -24 72 -3 25 -9 46 -15 48 -5 1 -27
-18 -49 -42 l-39 -44 30 6 c26 5 29 3 28 -23 -1 -21 -7 -29 -25 -31 -14 -2
-29 -11 -35 -19 -7 -9 -18 -13 -26 -11 -8 3 -29 -3 -47 -14 -18 -11 -36 -18
-39 -14 -3 3 -12 1 -18 -4 -7 -6 -29 -11 -50 -13 -32 -2 -40 2 -54 27 -9 16
-22 31 -28 33 -13 5 -25 -39 -17 -64 5 -15 4 -15 -5 -3 -11 16 -12 15 -29 -23
-10 -23 -15 -26 -29 -16 -13 8 -19 26 -20 64 -2 49 0 56 28 79 36 30 45 32 57
10 7 -13 11 -14 17 -4 4 7 2 16 -5 20 -8 5 -4 15 14 33 14 14 26 35 26 46 0
14 9 23 25 27 21 5 36 24 19 24 -15 0 -70 -47 -67 -57 2 -6 -11 -19 -31 -28
-19 -9 -42 -25 -52 -36 -9 -10 -23 -19 -31 -19 -7 0 -13 -4 -13 -10 0 -5 -12
-13 -26 -16 -22 -6 -24 -8 -10 -16 23 -13 20 -35 -8 -53 -17 -11 -22 -22 -19
-39 3 -14 -3 -39 -13 -56 -19 -31 -19 -32 1 -46 19 -15 19 -16 2 -29 -10 -7
-18 -17 -18 -22 1 -16 -23 -73 -30 -73 -4 0 -11 5 -14 10 -4 6 -16 10 -28 8
-20 -3 -22 1 -22 51 0 34 -5 56 -12 58 -10 4 -10 10 1 31 7 15 17 37 21 50 6
22 5 23 -28 17 -21 -4 -37 -3 -41 4 -5 7 2 11 15 11 35 0 89 47 89 76 0 25
-34 63 -56 64 -6 0 -20 11 -33 23 -19 21 -20 25 -6 37 8 7 15 20 15 28 0 18
-58 72 -77 72 -7 0 -13 5 -13 10 0 6 5 10 10 10 18 0 7 34 -15 47 -12 8 -38
10 -65 7 l-45 -5 28 16 c34 20 25 38 -14 30 -37 -8 -38 8 -1 22 25 10 24 11
-23 12 -44 1 -48 3 -33 15 22 16 13 26 -24 26 -37 0 -36 18 2 31 38 14 38 27
0 40 -33 12 -31 28 3 30 12 1 -2 9 -32 19 -48 15 -52 18 -35 28 19 10 19 11
-1 19 -18 7 -17 8 10 13 l30 6 -30 20 c-34 22 -38 50 -13 78 13 15 15 23 7 33
-6 7 -17 13 -23 13 -21 -1 -105 45 -106 58 0 6 -6 12 -13 12 -8 0 -24 11 -37
24 -12 14 -35 28 -51 31 -15 4 -50 17 -78 30 -75 37 -100 41 -116 19 -12 -17
-11 -22 8 -43 18 -20 19 -23 5 -18 -14 5 -18 1 -18 -17 0 -25 50 -76 75 -76 7
0 18 -7 25 -15 12 -15 4 -20 -22 -16 -12 2 -10 -4 10 -27 9 -11 28 -34 42 -51
14 -17 33 -31 42 -31 16 0 16 -2 -2 -20 -11 -11 -24 -20 -30 -20 -5 0 -10 -4
-10 -10 0 -5 7 -7 15 -4 8 4 15 1 15 -5 0 -7 13 -9 39 -5 29 5 39 2 44 -9 4
-11 0 -14 -16 -11 -12 2 -16 2 -9 -2 18 -9 15 -27 -4 -20 -13 5 -15 1 -9 -21
3 -16 12 -35 19 -43 18 -21 31 -74 15 -65 -8 6 -8 2 0 -14 7 -11 18 -21 26
-21 16 0 17 -1 20 -45 2 -31 -17 -70 -28 -58 -4 3 -7 1 -7 -5 0 -16 23 -28 28
-14 6 20 32 13 32 -8 0 -15 7 -20 24 -20 14 0 28 5 31 10 3 6 13 10 21 10 11
0 12 -4 3 -19 -16 -24 -5 -49 26 -61 14 -5 25 -17 25 -26 0 -15 -3 -15 -22 3
-30 27 -68 46 -76 38 -4 -3 0 -10 7 -14 7 -5 11 -13 7 -19 -3 -6 2 -18 11 -28
10 -10 18 -27 18 -38 0 -13 8 -22 24 -26 19 -4 21 -7 10 -17 -8 -6 -18 -12
-24 -13 -44 -10 -47 -30 -5 -30 20 0 30 5 30 15 0 8 5 15 10 15 6 0 10 -6 10
-13 0 -7 9 -19 20 -27 25 -18 26 -40 3 -41 -26 -2 -36 -4 -55 -13 -27 -12 -21
-27 8 -24 15 2 29 -3 31 -9 3 -7 -3 -13 -12 -13 -33 0 -5 -17 31 -18 42 -2 64
-16 64 -44 0 -25 40 -40 61 -22 17 15 49 19 49 6 0 -5 -16 -16 -36 -26 -36
-17 -36 -17 -18 -38 19 -20 19 -21 -6 -13 -22 7 -23 6 -12 -8 7 -8 26 -20 43
-26 23 -8 29 -7 29 5 0 7 7 14 15 14 8 0 15 8 15 18 1 20 76 110 85 100 4 -3
0 -19 -8 -35 -21 -41 -31 -109 -17 -118 9 -6 9 -9 -1 -15 -16 -11 -24 -80 -8
-80 7 0 9 -10 7 -25 -3 -14 -2 -25 2 -25 4 0 10 -10 14 -22 3 -15 17 -27 42
-34 45 -14 85 0 128 45 31 32 49 40 41 18 -4 -8 5 -12 27 -12 27 0 32 -4 30
-18 -3 -15 1 -17 20 -11 48 15 91 22 104 17 13 -5 19 12 15 44 -1 7 8 17 20
23 11 7 33 25 48 42 24 26 30 29 48 19 31 -16 70 -14 99 6 24 15 28 15 57 1
18 -9 40 -19 50 -22 9 -3 20 -19 23 -36 4 -16 10 -30 15 -30 15 0 20 40 8 73
-11 30 -9 39 11 76 13 22 29 41 36 41 7 0 14 5 16 11 3 8 10 8 26 -2 19 -12
23 -11 36 6 22 29 20 35 -17 35 -34 0 -77 23 -65 35 3 3 27 -1 52 -9 60 -20
63 -20 41 4 -18 20 -17 20 15 20 25 0 31 -3 26 -16 -5 -13 -1 -15 18 -10 32 8
45 -13 21 -31 -27 -19 -6 -39 24 -24 23 13 28 50 10 68 -15 15 -3 34 16 26 8
-3 15 0 15 5 0 16 -18 24 -25 12 -9 -15 -35 -12 -35 4 0 22 70 26 83 5 10 -16
13 -17 38 -2 27 16 59 12 59 -7 0 -5 -11 -10 -25 -10 -14 0 -25 -4 -25 -10 0
-5 5 -10 10 -10 6 0 10 -5 10 -11 0 -7 -10 -9 -25 -5 -14 4 -25 2 -25 -4 0 -5
-7 -10 -15 -10 -8 0 -15 -8 -15 -17 -1 -22 -39 -68 -63 -76 -14 -5 -20 -1 -24
13 -6 22 -14 25 -29 11 -5 -5 -17 -11 -26 -13 -13 -2 -15 -7 -8 -18 8 -13 13
-13 31 -2 18 12 23 10 39 -8 18 -21 20 -21 66 -5 27 9 59 13 76 10 17 -4 28
-2 28 4 0 6 6 11 14 11 8 0 21 18 30 40 17 44 31 51 41 20 4 -11 15 -20 26
-20 11 0 22 -7 25 -15 4 -8 12 -15 19 -15 7 0 19 -13 26 -29 l13 -30 34 21
c34 21 82 25 141 13 21 -5 32 -4 28 2 -8 12 50 69 60 59 4 -3 -1 -20 -10 -36
l-17 -29 44 -31 c25 -18 50 -46 57 -62 10 -24 16 -28 33 -23 12 4 48 9 81 11
33 3 71 8 85 13 14 5 32 9 40 9 8 0 29 3 45 6 47 10 77 -19 83 -83 4 -40 8
-51 19 -47 8 3 20 6 26 6 7 0 4 5 -5 11 -10 5 -18 14 -18 19 0 16 28 11 38 -7
6 -10 16 -14 26 -10 9 4 16 2 16 -3 0 -5 25 -7 58 -4 45 4 61 2 71 -10 7 -8
19 -12 27 -9 13 5 20 -24 15 -64 -2 -16 -5 -16 85 2 67 14 77 14 96 0 13 -8
29 -15 38 -15 8 0 26 -14 40 -30 24 -29 28 -31 92 -29 42 1 73 -3 82 -10 8 -7
25 -12 38 -11 38 3 50 1 43 -10 -3 -5 -1 -10 5 -10 6 0 19 -7 27 -16 14 -13
14 -17 2 -25 -11 -7 -11 -9 4 -9 20 0 23 -20 5 -38 -14 -14 3 -17 17 -3 19 16
65 22 65 8 0 -27 40 -57 78 -58 30 0 33 -2 17 -9 -18 -7 -15 -10 23 -26 23 -9
42 -23 42 -30 0 -7 3 -19 6 -28 4 -11 1 -16 -10 -16 -15 0 -20 -14 -19 -47 1
-7 -3 -13 -8 -13 -6 0 -5 -9 1 -20 9 -16 7 -24 -9 -41 -26 -28 -9 -59 32 -59
l29 0 -32 -31 c-34 -34 -34 -47 -1 -29 24 12 28 5 8 -14 -13 -13 -46 -27 -77
-32 -86 -15 -131 -20 -136 -15 -3 3 -29 7 -58 8 -33 1 -67 10 -90 24 -21 12
-54 24 -74 25 -20 2 -66 9 -102 14 -195 31 -392 -2 -498 -84 -31 -24 -74 -60
-95 -79 -27 -26 -44 -34 -62 -31 -15 3 -31 -3 -43 -16 -18 -19 -18 -19 -50 10
-18 16 -32 34 -32 39 0 11 -13 15 -37 12 -8 -1 -13 9 -13 24 0 17 -4 24 -11
19 -8 -4 -9 4 -4 27 l6 34 -16 -30 c-9 -16 -26 -40 -37 -52 -12 -13 -19 -26
-15 -29 3 -4 -1 -23 -9 -42 -8 -20 -12 -42 -9 -50 2 -7 -2 -27 -11 -45 -12
-21 -13 -32 -5 -35 6 -2 11 -9 11 -15 0 -7 9 -18 21 -25 l20 -13 -22 -18 c-13
-11 -19 -23 -15 -30 11 -16 50 -31 56 -20 3 4 12 4 19 0 11 -7 9 -13 -7 -29
-21 -21 -29 -96 -12 -117 5 -5 16 -36 25 -67 14 -51 15 -60 1 -86 -8 -16 -26
-37 -40 -46 -15 -9 -26 -23 -26 -32 0 -8 -6 -17 -14 -20 -9 -3 -12 -12 -9 -21
4 -11 2 -14 -5 -9 -12 7 -62 -35 -62 -53 0 -13 46 -44 69 -47 9 -2 36 -5 60
-8 46 -6 81 -29 81 -53 0 -7 7 -25 16 -38 9 -13 13 -29 9 -35 -4 -6 -1 -25 6
-42 9 -23 10 -33 2 -35 -32 -11 -56 -45 -60 -85 -2 -24 -8 -58 -13 -77 -5 -19
-8 -37 -6 -40 2 -3 7 -23 10 -43 3 -21 7 -41 8 -45 4 -14 -13 -53 -23 -53 -5
0 -13 -8 -16 -17 -8 -21 -40 -53 -53 -53 -5 0 -10 -4 -10 -10 0 -5 -3 -9 -8
-7 -11 3 -49 -38 -45 -50 2 -6 -5 -17 -15 -25 -11 -7 -32 -37 -48 -67 -16 -29
-53 -79 -81 -111 -29 -32 -53 -61 -53 -64 0 -6 -31 -44 -57 -72 -7 -7 -13 -20
-13 -28 0 -9 -4 -16 -10 -16 -5 0 -10 -6 -10 -14 0 -8 -12 -24 -26 -35 -15
-12 -23 -21 -19 -21 20 0 -35 -45 -82 -66 -29 -14 -53 -30 -53 -37 -1 -7 -16
-24 -35 -38 l-34 -26 23 -22 c15 -14 39 -23 72 -25 27 -2 58 -7 68 -12 15 -6
17 -4 11 6 -6 10 -4 12 8 7 9 -3 18 -1 21 6 2 7 5 4 5 -6 1 -10 5 -15 11 -12
5 3 7 0 4 -8 -3 -8 -19 -18 -36 -21 -27 -5 -29 -8 -17 -23 13 -15 12 -16 -8
-11 -13 4 -23 2 -23 -4 0 -21 -99 1 -158 34 -65 38 -91 43 -130 22 -15 -7 -34
-14 -43 -14 -8 0 -23 -6 -33 -13 -17 -13 -17 -15 8 -42 16 -17 25 -37 23 -47
-3 -10 -1 -18 4 -18 13 0 40 -57 34 -72 -4 -9 2 -14 16 -15 16 -1 25 8 37 37
14 32 50 70 56 58 19 -36 58 -124 56 -127 -1 -2 2 -7 8 -10 5 -3 13 -15 19
-25 10 -18 13 -17 30 20 10 21 25 40 33 40 8 1 17 3 20 4 3 1 17 4 33 6 l27 3
-4 -86 c-3 -47 -9 -89 -13 -93 -20 -16 -63 -29 -68 -20 -11 18 -25 10 -25 -13
0 -13 11 -38 25 -57 25 -34 34 -90 15 -90 -5 0 -10 -11 -10 -24 0 -19 5 -23
27 -22 25 1 29 6 39 53 11 51 32 83 53 83 22 0 33 40 20 77 -14 44 -7 137 15
177 l15 30 11 -28 c5 -15 10 -32 10 -37 0 -6 11 -29 24 -52 26 -46 41 -97 29
-97 -5 0 -8 -23 -7 -50 0 -28 -4 -50 -9 -50 -5 0 -7 -17 -4 -39 3 -27 0 -47
-10 -61 -14 -20 -14 -25 5 -59 15 -26 18 -41 11 -54 -6 -9 -8 -21 -5 -26 3 -5
-1 -28 -9 -51 -8 -23 -15 -54 -15 -67 0 -36 23 -23 35 19 16 55 31 68 68 57
33 -9 44 -23 63 -76 9 -25 9 -38 -1 -57 -7 -14 -11 -27 -9 -29 10 -10 -27
-138 -44 -154 -32 -31 -60 -44 -65 -30 -2 6 -18 10 -35 9 -29 -2 -33 1 -39 28
l-6 31 -16 -24 c-24 -36 -48 -57 -65 -57 -10 0 -16 -9 -16 -23 0 -14 -12 -32
-30 -45 -36 -27 -61 -63 -63 -90 0 -12 -5 -18 -9 -16 -5 3 -13 -8 -19 -25 -7
-20 -18 -31 -30 -31 -24 0 -25 -29 -1 -36 9 -3 30 -12 45 -21 21 -11 32 -12
40 -4 6 6 19 11 29 11 10 0 18 6 18 14 0 8 9 18 20 21 11 3 20 14 20 24 0 10
11 23 25 29 15 7 22 17 19 26 -3 9 3 17 15 21 12 3 21 10 21 14 0 4 9 19 21
32 11 13 24 30 28 37 4 7 37 20 73 28 51 12 75 24 108 54 53 49 138 73 165 46
22 -22 35 -20 35 4 0 11 4 20 10 20 16 0 31 76 25 127 -3 26 -1 68 3 93 5 27
3 72 -4 113 -6 37 -8 70 -4 72 4 3 10 16 12 29 4 20 -1 27 -23 37 -16 6 -29
15 -29 20 0 5 -6 9 -14 9 -7 0 -19 7 -26 15 -10 12 -15 10 -36 -14 -13 -16
-24 -35 -24 -43 0 -17 -34 -51 -42 -42 -4 3 -15 1 -26 -5 -14 -8 -29 -7 -52 0
-27 10 -33 9 -45 -7 -11 -15 -15 -16 -15 -4 -1 8 -4 29 -6 45 -10 60 -4 127
16 167 14 30 18 52 14 79 -5 29 -2 42 11 55 16 16 18 16 26 1 6 -9 17 -14 27
-11 13 5 14 4 3 -4 -8 -6 -11 -17 -7 -27 3 -10 9 -15 13 -11 3 3 15 -1 25 -11
17 -15 19 -15 36 0 10 10 24 17 30 17 7 0 12 6 12 13 0 20 33 55 47 50 7 -2
21 1 32 7 16 8 21 8 21 -2 1 -7 18 -33 40 -58 37 -42 42 -44 86 -41 38 2 46 0
41 -12 -3 -8 -1 -19 4 -24 25 -25 45 -80 35 -96 -8 -12 -4 -22 19 -42 l30 -25
5 22 c3 13 5 40 4 61 -2 32 2 40 22 47 27 11 23 32 -12 66 -24 21 -47 91 -45
134 1 14 1 42 1 64 0 29 4 37 15 33 9 -4 15 2 17 16 2 14 9 21 19 19 10 -1 19
6 22 18 3 11 13 23 24 27 10 4 24 13 32 21 12 11 16 11 29 -2 9 -9 21 -30 26
-48 12 -37 26 -41 41 -9 13 28 29 27 49 -4 15 -23 15 -30 2 -82 -8 -31 -19
-59 -24 -62 -14 -9 -23 -69 -11 -77 6 -3 19 2 30 12 10 9 20 15 22 13 30 -41
38 -66 35 -105 -2 -24 0 -44 5 -44 37 -1 47 1 42 10 -3 5 -1 10 4 10 6 0 10
10 9 23 -1 12 7 40 17 62 10 22 17 44 16 50 -3 13 28 35 42 29 16 -6 37 62 24
75 -7 7 -6 15 2 25 7 8 10 20 7 25 -4 6 6 17 22 25 26 13 29 13 40 -5 7 -11
17 -17 22 -14 5 3 7 0 4 -8 -3 -10 6 -21 27 -31 41 -20 39 -21 39 14 0 19 -7
34 -20 42 -23 15 -26 28 -6 28 7 0 16 9 19 20 7 27 52 26 75 -1 57 -68 53 -65
63 -47 17 30 47 41 65 23 22 -22 44 -19 44 8 1 12 10 33 21 47 19 23 22 23 33
8 8 -11 16 -14 22 -8 7 7 22 -1 43 -22 46 -45 60 -78 55 -126 -6 -48 7 -78 36
-87 11 -3 20 -12 20 -19 0 -7 11 -19 25 -26 14 -7 25 -19 25 -27 0 -7 4 -13
10 -13 5 0 16 -15 23 -32 14 -34 12 -68 -4 -68 -5 0 -9 -7 -9 -15 0 -9 -6 -12
-16 -8 -13 5 -15 1 -10 -23 4 -16 6 -52 6 -79 0 -28 -1 -60 0 -72 0 -29 -45
-109 -59 -106 -6 2 -11 -2 -11 -7 0 -6 5 -10 10 -10 6 0 10 -4 10 -10 0 -5 -5
-9 -12 -7 -7 1 -17 -16 -23 -38 -14 -54 -20 -62 -62 -76 -33 -11 -37 -10 -54
12 -10 13 -16 32 -14 42 3 9 8 26 11 37 4 14 1 20 -11 20 -9 0 -14 4 -11 9 3
5 0 21 -8 35 -13 25 -15 26 -30 10 -11 -10 -14 -24 -10 -38 9 -29 9 -27 0 -64
-4 -18 -11 -30 -16 -27 -5 3 -11 1 -15 -5 -10 -16 -53 -11 -64 8 -8 14 -11 15
-15 2 -3 -8 -5 -28 -3 -45 2 -28 0 -30 -33 -31 -46 0 -75 19 -107 73 -21 36
-25 56 -25 116 0 46 6 83 16 102 11 21 16 25 16 12 0 -27 22 -15 36 19 17 40
2 68 -20 39 -21 -29 -28 -15 -33 72 -3 63 -8 81 -24 95 -17 14 -23 15 -34 5
-20 -20 -47 -77 -42 -90 2 -7 -1 -23 -8 -37 -19 -38 -28 -83 -15 -75 5 3 10
-1 10 -10 0 -9 -4 -13 -10 -10 -6 4 -7 -6 -4 -25 7 -32 -9 -43 -20 -14 -5 12
-9 14 -20 5 -10 -9 -17 -6 -30 13 -9 14 -16 34 -16 44 0 22 -23 46 -33 35 -4
-3 -7 -17 -7 -30 0 -13 -4 -22 -9 -19 -5 4 -12 -12 -16 -34 -4 -23 -18 -61
-32 -87 -26 -45 -26 -46 -9 -97 20 -65 20 -90 1 -106 -8 -7 -15 -19 -15 -26 0
-8 -7 -14 -15 -14 -8 0 -15 4 -15 9 0 5 -9 7 -20 4 -17 -5 -20 0 -20 27 0 23
4 31 14 27 26 -10 35 13 21 53 -7 21 -11 41 -8 44 4 3 1 6 -5 6 -7 0 -12 9
-12 20 0 23 -28 27 -36 6 -3 -8 2 -29 11 -47 15 -27 15 -31 2 -26 -17 6 -31
-31 -21 -56 3 -8 1 -18 -5 -22 -6 -3 -11 -16 -11 -28 -1 -28 -69 -75 -81 -56
-7 13 -60 23 -57 11 1 -4 -1 -24 -5 -44 -5 -24 -3 -44 5 -57 10 -16 10 -23 0
-33 -18 -18 -15 -31 6 -24 11 4 9 0 -5 -10 -13 -9 -23 -25 -23 -35 0 -21 -37
-36 -53 -20 -18 18 -36 13 -34 -9 1 -11 5 -20 10 -20 5 0 5 -10 1 -22 -4 -13
-7 -36 -7 -53 1 -16 -1 -24 -4 -17 -3 6 -8 12 -13 12 -11 0 18 -81 37 -102 13
-14 13 -21 4 -32 -7 -8 -10 -24 -6 -34 6 -21 -21 -102 -39 -114 -7 -5 -4 -8 7
-8 9 0 17 7 17 15 0 8 5 15 10 15 6 0 23 11 37 24 26 24 26 25 14 86 -15 73
-12 145 6 180 7 14 13 30 13 37 0 19 65 64 83 57 17 -6 87 31 87 45 0 20 56
-5 84 -37 50 -56 60 -117 31 -207 -6 -21 16 -56 69 -108 30 -28 51 -31 51 -6
0 8 7 19 15 26 8 7 11 13 7 13 -4 0 -3 10 4 21 8 16 8 20 -1 14 -7 -4 -13 1
-17 14 -3 12 -11 21 -18 21 -7 0 -18 7 -25 15 -7 9 -8 15 -2 15 6 0 7 13 3 33
-4 17 -5 43 -4 57 2 14 3 37 4 53 0 15 5 27 10 27 6 0 8 4 4 9 -10 17 18 24
30 8 18 -25 24 -21 16 10 -5 18 -14 28 -26 28 -10 0 -20 6 -23 13 -3 9 4 12
20 9 12 -2 18 -2 12 0 -6 2 -11 16 -12 31 0 15 -2 32 -3 37 -6 22 14 55 40 68
24 12 34 12 60 1 23 -10 39 -10 60 -3 40 14 71 -9 101 -75 38 -83 44 -115 25
-136 -9 -10 -14 -23 -10 -29 4 -7 0 -8 -11 -4 -14 5 -15 1 -10 -24 4 -17 2
-61 -5 -99 -7 -38 -12 -80 -11 -94 1 -14 2 -41 3 -60 2 -59 49 -126 49 -70 0
20 1 20 24 3 16 -12 21 -23 16 -33 -10 -20 -2 -40 17 -40 9 0 13 -6 10 -13 -3
-8 7 -27 21 -43 35 -38 41 -98 12 -116 -15 -10 -20 -24 -20 -60 0 -45 -1 -46
-28 -43 -26 3 -29 1 -25 -23 l5 -27 -21 25 c-11 14 -21 39 -21 57 0 17 -7 38
-15 47 -24 23 -18 42 6 20 22 -19 22 -19 8 4 -8 12 -17 22 -21 22 -5 0 -8 8
-8 19 0 10 -7 34 -15 52 -13 32 -14 27 -13 -91 1 -81 -3 -140 -12 -168 -14
-45 -19 -49 -39 -30 -10 11 -16 8 -33 -14 -21 -30 -48 -37 -48 -13 0 8 -4 16
-10 16 -5 1 -16 2 -22 3 -7 0 -13 6 -13 11 0 6 -4 16 -8 23 -7 9 -13 7 -28
-12 -10 -13 -19 -30 -19 -36 0 -7 -8 -10 -20 -7 -17 4 -20 2 -15 -14 5 -15 1
-19 -15 -19 -11 0 -20 -6 -19 -12 4 -36 -1 -41 -21 -23 -11 10 -17 22 -14 26
3 5 -2 6 -10 3 -9 -3 -16 -1 -16 4 0 6 -5 23 -11 39 -7 15 -13 53 -13 83 -2
80 -20 115 -70 140 -23 11 -52 29 -64 40 -11 11 -23 20 -25 20 -3 0 -12 -17
-20 -37 -17 -42 -76 -108 -105 -117 -11 -4 -24 -23 -31 -49 -17 -58 -38 -87
-61 -87 -11 0 -25 -8 -32 -19 -9 -15 -19 -18 -50 -14 -32 5 -42 1 -67 -23 -16
-16 -31 -36 -33 -44 -6 -29 -22 -37 -68 -32 -24 3 -58 13 -74 23 -16 10 -34
15 -40 11 -6 -3 -18 -7 -26 -7 -8 0 -20 -11 -26 -23 -23 -46 -31 -47 -71 -8
l-38 37 2 87 c3 171 14 264 35 308 l20 43 -20 26 c-12 14 -28 48 -37 76 l-17
49 -17 -22 c-10 -13 -23 -37 -30 -54 -7 -18 -26 -44 -42 -60 -16 -15 -29 -36
-29 -46 0 -10 -4 -18 -10 -18 -5 0 -10 -9 -10 -20 0 -14 5 -18 16 -13 14 5 15
3 4 -16 -10 -19 -9 -26 7 -43 18 -21 18 -21 -10 -14 -26 6 -28 5 -22 -14 4
-12 3 -26 -2 -33 -5 -7 -10 -22 -11 -35 -1 -28 -37 -88 -57 -96 -8 -3 -15 -17
-15 -30 0 -52 -49 -111 -72 -88 -13 13 -87 -19 -110 -48 -18 -22 -118 -100
-129 -100 -16 0 -18 34 -3 52 10 10 15 19 13 21 -37 21 -69 34 -69 27 0 -6 -7
-10 -15 -10 -17 0 -20 -16 -5 -25 15 -9 12 -25 -5 -25 -8 0 -15 -9 -15 -20 0
-21 -19 -60 -34 -71 -5 -4 -6 -14 -3 -23 3 -8 2 -18 -3 -21 -6 -4 -10 -13 -10
-22 0 -12 7 -14 34 -10 34 5 34 5 24 -24 -5 -16 -17 -29 -25 -29 -21 0 -42
-30 -43 -59 l0 -24 21 27 c21 27 49 35 49 14 0 -7 -9 -24 -20 -38 -28 -36 -26
-60 6 -60 l25 0 -32 -45 c-18 -25 -35 -45 -38 -45 -3 0 -14 12 -24 26 -14 18
-16 28 -8 38 8 10 7 21 -3 40 -12 23 -12 32 -1 52 13 26 10 60 -6 70 -5 3 -9
13 -9 24 0 10 -7 20 -15 24 -20 7 -19 28 6 76 17 32 19 43 9 55 -20 25 -8 59
30 77 19 10 43 16 52 14 11 -2 15 1 11 10 -3 8 2 17 11 20 14 6 14 9 -2 37 -9
18 -23 38 -30 46 -11 11 -12 38 -7 120 12 184 12 195 -4 224 -16 28 -31 36
-31 15 0 -9 -3 -9 -12 0 -15 15 -32 16 -23 2 3 -6 -1 -17 -9 -26 -9 -8 -16
-23 -17 -32 -2 -44 -7 -64 -16 -70 -19 -12 -26 -54 -12 -63 11 -8 11 -11 -3
-20 -10 -5 -18 -19 -18 -29 0 -11 -3 -20 -7 -20 -11 0 -64 -103 -72 -142 -8
-32 -7 -33 25 -33 18 0 35 3 39 7 4 4 17 2 30 -4 21 -9 22 -12 8 -39 -8 -16
-19 -29 -24 -29 -20 0 -7 -31 17 -40 18 -7 24 -15 20 -26 -3 -9 -6 -20 -6 -25
0 -4 -13 -6 -28 -3 -25 5 -30 1 -51 -41 -13 -25 -28 -44 -34 -42 -15 5 -28 58
-18 71 14 16 8 114 -5 109 -7 -2 -14 -17 -18 -33 -4 -22 -15 -33 -41 -45 -39
-16 -46 -47 -11 -53 26 -5 58 -41 52 -58 -9 -23 -36 -17 -36 9 -1 21 -1 21
-15 3 -11 -14 -11 -22 -2 -36 8 -15 8 -25 -3 -46 -12 -21 -12 -28 -2 -31 6 -3
12 -10 12 -17 0 -7 9 -21 20 -31 22 -20 24 -56 4 -62 -7 -2 -14 8 -18 22 -4
14 -13 25 -21 25 -9 0 -15 10 -15 25 0 14 -5 25 -11 25 -7 0 -8 11 -4 30 5 23
3 30 -8 30 -8 0 -18 7 -21 16 -3 9 -12 14 -20 11 -21 -8 -27 3 -11 20 10 9 15
35 15 69 0 56 -13 72 -24 29 -4 -14 -10 -24 -14 -22 -13 3 -73 -61 -63 -67 5
-4 16 1 24 9 17 16 47 20 47 6 0 -5 -6 -14 -14 -20 -8 -7 -17 -23 -20 -37 -5
-18 -11 -24 -23 -20 -9 4 -21 -1 -28 -11 -11 -15 -15 -15 -29 -4 -11 9 -16 10
-16 2 0 -6 11 -16 25 -23 13 -6 29 -24 34 -40 6 -18 6 -26 1 -23 -22 14 -8
-29 19 -55 20 -20 35 -27 50 -23 15 4 21 1 21 -11 0 -10 -6 -13 -15 -10 -8 4
-15 3 -15 0 0 -11 54 -55 68 -56 7 0 35 -18 61 -40 33 -28 57 -40 79 -40 55 0
133 -21 144 -39 7 -11 19 -16 33 -13 14 2 36 -5 54 -19 25 -18 46 -23 110 -25
79 -2 121 -20 121 -50 0 -7 7 -14 15 -18 11 -4 14 -13 9 -32 -6 -23 -5 -25 12
-15 11 6 34 23 53 39 35 30 55 30 115 0 13 -7 24 -4 40 11 22 21 23 21 62 2
57 -27 84 -34 84 -22 0 7 21 9 57 6 34 -3 61 0 70 6 8 7 13 8 13 1 0 -5 -7
-15 -15 -22 -8 -7 -15 -9 -15 -4 0 13 -44 -39 -47 -55 -2 -14 -14 -43 -34 -83
-18 -36 -7 -61 16 -39 9 9 63 14 108 12 9 -1 17 -8 17 -15 0 -12 8 -11 40 6
22 12 40 27 40 34 0 7 16 21 36 30 20 9 45 30 57 45 14 20 24 26 32 19 13 -11
25 -3 25 17 0 22 33 53 56 53 12 0 46 -11 75 -25 35 -16 57 -21 63 -15 17 17
30 11 50 -19 l20 -29 35 37 c45 46 91 66 128 55 16 -4 37 -8 48 -8 12 -1 19
-7 17 -15 -2 -8 3 -18 10 -22 15 -10 -4 -50 -45 -94 -15 -16 -35 -42 -43 -58
-32 -60 -13 -154 45 -220 31 -35 41 -20 28 41 -8 38 -7 47 7 57 9 7 16 20 16
29 0 9 7 16 15 16 8 0 12 6 10 13 -3 7 9 18 27 26 18 8 38 22 45 30 8 11 12
12 13 4 0 -18 30 -16 30 2 0 8 2 15 4 15 2 0 12 3 21 6 9 4 15 3 14 -2 -1 -5
0 -11 1 -14 1 -3 4 -18 6 -35 3 -16 12 -40 20 -52 8 -12 14 -41 14 -63 0 -25
4 -39 10 -35 6 3 10 16 10 29 0 12 3 26 8 30 4 4 8 31 9 59 1 29 2 55 2 60 1
4 8 7 17 7 8 0 12 4 9 10 -3 5 -2 18 3 27 6 10 6 26 1 40 -6 17 -5 23 6 23 8
0 22 11 31 25 22 34 38 32 31 -5 -6 -28 7 -43 15 -18 2 6 18 -2 36 -20 18 -18
39 -32 47 -32 7 0 17 -9 20 -20 3 -11 11 -20 16 -20 12 0 12 17 0 25 -6 3 -17
20 -26 37 l-16 33 33 -34 c21 -22 34 -29 37 -20 2 7 -1 15 -7 17 -7 2 -12 10
-12 17 0 7 -6 15 -14 18 -8 3 -17 19 -21 36 -6 27 -10 30 -33 26 -15 -3 -21
-2 -14 1 6 3 10 10 6 15 -3 5 2 12 10 15 9 3 13 10 10 15 -7 13 10 11 23 -2 8
-8 18 -6 35 5 14 9 27 13 31 10 3 -3 28 -6 56 -6 49 1 51 0 60 -35 6 -20 8
-40 4 -46 -3 -5 -6 -33 -7 -62 -1 -47 1 -52 15 -44 14 7 16 5 12 -11 -3 -11 0
-20 6 -20 6 0 11 -13 11 -30 0 -22 5 -30 18 -30 18 -1 48 -20 50 -32 1 -5 2
-12 2 -18 0 -5 5 -10 11 -10 7 0 10 14 7 35 -2 19 -1 36 2 37 4 2 10 18 13 37
6 29 5 32 -8 21 -13 -10 -15 -9 -15 9 0 12 4 20 9 17 4 -3 6 6 3 19 -6 32 2
31 35 -1 21 -22 24 -31 19 -64 -5 -34 -4 -39 10 -33 9 3 20 0 25 -8 4 -7 22
-14 40 -15 17 -1 34 -6 38 -12 12 -19 49 -23 64 -7 9 9 23 12 33 8 14 -5 16
-3 10 12 -4 11 -2 21 5 26 7 4 1 12 -17 20 -39 19 -55 99 -19 99 15 0 15 60 0
60 -5 0 -1 6 9 12 16 9 22 6 37 -13 9 -13 16 -26 14 -29 -2 -3 6 -24 18 -45
21 -37 26 -40 69 -41 49 -1 50 2 25 53 -6 13 -8 26 -4 29 3 4 2 15 -4 25 -25
48 -5 119 33 119 7 0 21 9 31 20 9 11 23 20 30 20 9 0 12 11 11 32 -2 18 4 46
12 62 8 16 14 39 14 51 0 11 6 29 13 39 12 17 15 16 44 -8 34 -28 58 -34 50
-12 -6 15 20 26 66 26 22 0 30 6 38 30 6 17 17 30 25 30 8 0 14 3 14 8 0 4 23
31 50 59 28 29 50 61 50 71 0 10 4 22 8 28 5 5 15 25 22 44 7 19 22 48 33 63
12 17 20 48 21 76 1 25 5 52 10 59 4 7 2 19 -4 27 -7 8 -10 21 -7 30 4 8 0 21
-8 29 -19 18 -19 24 1 43 20 20 14 67 -8 71 -11 2 -18 -3 -18 -12 0 -8 -4 -17
-8 -20 -4 -2 -6 11 -4 30 2 19 8 34 13 34 5 0 9 4 9 10 0 6 -9 6 -25 0 -20 -8
-27 -6 -35 10 -13 24 4 37 26 19 21 -17 30 -3 17 31 -8 21 -8 30 1 33 17 7 18
57 1 63 -8 4 -15 15 -15 26 0 17 -3 18 -15 8 -8 -6 -19 -9 -25 -5 -5 3 -10 -1
-10 -11 0 -9 -8 -23 -17 -30 -15 -10 -16 -15 -5 -25 14 -15 16 -33 2 -24 -14
9 -13 -11 2 -35 18 -28 0 -39 -21 -12 -11 16 -22 21 -34 16 -16 -6 -17 -2 -11
43 5 43 4 51 -12 57 -11 3 -26 9 -34 12 -12 5 -13 4 -2 -7 16 -17 15 -29 -3
-29 -36 0 -40 91 -5 120 19 15 30 76 18 96 -8 12 1 54 11 54 8 0 9 12 13 153
2 60 0 111 -4 114 -5 2 -8 15 -8 27 0 13 -7 29 -15 36 -12 10 -15 10 -15 0 0
-8 -6 -21 -14 -29 -8 -9 -16 -40 -19 -70 -3 -37 -11 -60 -24 -70 -11 -9 -27
-29 -37 -44 -14 -23 -20 -26 -32 -16 -8 6 -14 23 -14 38 0 14 -7 40 -16 56
-11 20 -17 56 -18 107 -1 74 -10 104 -24 82 -12 -18 -57 -25 -76 -11 -10 8
-19 30 -22 55 -3 40 -2 42 16 32 11 -6 20 -15 20 -21 0 -6 4 -8 9 -4 5 3 12 1
16 -5 3 -5 12 -10 20 -10 10 0 11 9 5 35 -4 20 -6 44 -3 55 3 11 -3 32 -13 47
-18 28 -24 118 -10 142 8 12 35 -23 65 -81 8 -16 18 -28 22 -28 12 0 39 -30
39 -43 0 -6 -7 -2 -15 9 -14 18 -14 18 -15 -7 0 -14 9 -34 20 -44 11 -10 20
-24 20 -32 0 -7 5 -13 10 -13 6 0 10 -5 10 -11 0 -11 24 -39 34 -39 3 0 6 7 6
15 0 8 -5 15 -11 15 -6 0 -8 7 -5 16 4 11 -1 22 -14 31 -12 8 -20 25 -20 42 0
16 -9 40 -20 54 -11 14 -20 30 -20 36 0 7 -9 21 -20 33 -27 30 -58 90 -53 106
3 6 0 12 -7 12 -6 0 -9 4 -6 8 7 12 -22 52 -37 52 -7 0 -3 -7 7 -15 12 -9 14
-15 7 -15 -7 0 -22 -10 -33 -22 -13 -15 -21 -19 -24 -11 -3 7 -12 9 -20 6 -20
-7 -17 17 6 47 11 14 20 36 20 49 0 23 -1 24 -20 6 -19 -17 -20 -17 -20 -1 0
10 5 26 10 36 6 10 12 41 14 68 2 28 7 56 12 64 11 16 12 108 1 108 -4 0 -10
-6 -13 -14 -9 -23 -33 -28 -27 -6 3 12 -2 20 -14 24 -10 3 -25 19 -34 35 -10
16 -33 37 -53 46 -20 10 -36 24 -36 31 0 8 -6 14 -13 14 -8 0 -19 11 -25 25
-6 14 -16 25 -21 25 -5 0 -8 20 -6 44 3 25 1 66 -4 93 -6 30 -6 52 0 60 6 6 7
23 3 37 -6 26 3 32 43 27 6 -1 14 3 18 9 3 5 21 10 40 10 27 0 42 -9 79 -48
32 -33 46 -55 46 -75 0 -15 7 -38 15 -50 8 -12 15 -37 17 -56 2 -33 29 -58 48
-46 6 4 13 -1 16 -9 10 -25 33 -18 40 12 3 15 7 32 9 38 2 6 0 28 -5 47 -4 21
-4 39 2 45 7 7 5 21 -6 43 -18 36 -22 143 -6 183 7 21 6 26 -5 26 -21 0 -19
34 6 81 11 23 18 48 15 56 -4 9 -1 22 6 31 10 12 10 16 1 19 -19 7 -16 30 5
38 16 6 16 7 0 16 -10 6 -18 15 -18 21 0 6 -8 16 -17 23 -14 11 -15 17 -6 38
9 20 17 24 39 19 24 -4 26 -2 20 14 -4 10 -9 29 -10 40 -2 12 -17 44 -34 72
-44 73 -43 158 3 188 13 8 26 26 29 40 4 13 11 24 17 24 6 0 7 -4 4 -10 -3 -5
-1 -10 4 -10 6 0 11 -7 11 -14 0 -8 11 -27 25 -42 14 -15 25 -33 25 -40 0 -8
4 -14 10 -14 12 0 24 45 15 59 -3 6 1 11 9 11 21 0 20 14 0 31 -26 22 -37 60
-35 127 3 85 -4 105 -35 98 -18 -5 -26 -2 -30 11 -3 10 -10 26 -15 36 -5 10
-6 23 -2 30 4 8 1 7 -10 -1 -23 -20 -40 -6 -26 21 7 11 13 37 15 57 2 19 6 47
10 63 5 21 3 27 -10 27 -9 0 -16 -5 -16 -10 0 -11 -50 17 -61 34 -4 5 -16 6
-28 3 -12 -3 -21 -1 -21 4 0 5 -5 9 -11 9 -6 0 -9 -6 -6 -14 3 -8 -3 -50 -14
-93 -10 -43 -19 -86 -19 -95 0 -10 -4 -18 -10 -18 -5 0 -10 -7 -10 -15 0 -8
-7 -15 -15 -15 -8 0 -15 -6 -15 -14 0 -25 -21 -29 -42 -8 -14 14 -21 34 -22
68 -1 45 -3 48 -31 51 -17 2 -37 6 -45 10 -25 10 -54 11 -69 3 -10 -5 -30 8
-63 44 l-49 51 4 -41 c3 -25 14 -51 26 -63 14 -14 20 -29 16 -40 -3 -10 1 -30
8 -45 13 -24 14 -120 2 -153 -2 -6 11 -45 29 -87 38 -88 39 -147 2 -204 -17
-27 -26 -32 -48 -28 -23 5 -29 1 -34 -19 -4 -16 -13 -25 -26 -25 -10 0 -16 -4
-13 -10 3 -5 1 -20 -6 -32 -12 -22 -12 -22 -19 -3 -4 11 -4 24 1 30 12 12 11
82 -1 90 -5 3 -10 27 -10 52 0 39 2 44 15 33 8 -7 15 -20 15 -29 0 -13 2 -13
9 -2 5 7 14 10 20 7 17 -11 13 5 -6 26 -15 17 -15 18 6 18 19 0 21 4 15 23 -9
30 -7 29 -40 12 -16 -8 -34 -15 -39 -15 -16 0 -65 49 -65 65 0 8 -7 15 -15 15
-13 0 -14 -4 -4 -21 8 -15 8 -24 0 -28 -9 -6 -6 -24 25 -114 4 -10 12 -16 19
-13 17 6 11 -64 -6 -75 -8 -4 -14 -14 -15 -21 -3 -36 -5 -37 -34 -32 -17 4
-36 1 -44 -5 -10 -8 -16 -9 -21 -1 -3 5 -14 10 -24 10 -10 0 -24 6 -30 14 -16
19 -55 15 -59 -6 -4 -22 36 -179 49 -193 14 -14 11 -48 -7 -83 -21 -43 -32
-48 -44 -18 -9 26 -27 27 -57 3 -7 -5 -13 -6 -13 -1 0 5 -7 -1 -15 -13 -9 -13
-22 -20 -30 -17 -10 4 -15 0 -15 -15 0 -17 -6 -21 -33 -21 -21 0 -41 8 -52 20
-10 11 -26 20 -37 20 -10 0 -26 4 -36 9 -9 5 -30 15 -47 22 -16 7 -34 15 -39
17 -5 3 -6 0 -2 -7 4 -6 1 -11 -6 -11 -7 0 -19 -9 -26 -21 -10 -16 -19 -19
-40 -14 -15 4 -35 14 -44 22 -12 11 -18 12 -18 4 0 -7 -12 1 -26 18 -29 35
-44 39 -45 14 0 -11 -3 -13 -6 -6 -3 9 -11 9 -29 -3 -53 -36 -110 22 -102 104
2 26 -1 42 -7 42 -50 0 -84 49 -86 125 l-1 30 -14 -30 c-7 -16 -11 -40 -9 -53
3 -12 2 -22 -2 -21 -25 4 -50 -14 -46 -32 3 -10 0 -19 -6 -19 -6 0 -11 -7 -11
-15 0 -8 -7 -15 -15 -15 -8 0 -15 -6 -15 -12 -1 -7 -10 -2 -21 11 -15 18 -18
33 -14 60 11 77 18 101 25 96 4 -3 8 12 8 33 -1 38 16 111 34 149 10 20 13 21
32 8 26 -19 37 -19 29 0 -3 10 0 15 8 13 9 -2 13 5 12 17 -1 11 7 34 17 51 25
39 37 138 21 158 -9 11 -9 20 -2 35 6 11 11 32 11 47 0 32 78 167 91 158 5 -3
5 6 -1 20 -11 30 -4 56 16 56 16 0 19 16 4 25 -20 12 -9 23 19 20 24 -3 29 0
28 15 -1 10 -5 16 -9 14 -4 -3 -19 7 -33 22 -25 27 -34 51 -14 38 6 -3 3 5 -6
20 -13 20 -21 24 -31 16 -9 -8 -19 -7 -37 5 -31 20 -34 28 -31 85 6 128 5 143
-7 150 -10 7 -10 14 1 39 9 23 10 35 1 44 -8 10 -5 30 10 78 12 35 26 68 30
73 13 14 11 44 -2 48 -12 4 4 68 24 95 5 7 5 17 1 24 -4 7 -2 10 7 7 8 -3 19
-14 25 -26 6 -12 14 -19 17 -16 4 4 13 2 21 -5 11 -9 15 -9 19 1 4 10 9 8 17
-5 6 -9 16 -15 21 -11 5 3 23 -8 38 -25 19 -21 31 -27 34 -19 3 9 7 7 12 -5
10 -25 -2 -34 -26 -18 -23 14 -22 14 -38 -16 -10 -19 -9 -23 4 -23 9 0 15 -9
15 -23 0 -16 9 -26 33 -36 17 -8 36 -13 41 -12 4 1 14 -6 21 -15 7 -10 19 -15
28 -11 8 3 18 3 21 -1 7 -6 32 -13 56 -14 8 0 23 -7 32 -15 9 -8 21 -12 26 -9
5 3 21 -3 35 -14 16 -13 28 -16 32 -10 4 6 13 7 23 1 26 -14 162 3 162 20 0 5
3 8 8 8 22 -4 34 3 28 16 -3 10 3 17 19 21 14 3 22 11 19 19 -7 18 16 30 27
14 14 -23 10 -41 -11 -46 -23 -6 -25 -14 -9 -30 7 -7 8 -17 2 -29 -5 -11 -9
-38 -8 -61 1 -35 -2 -43 -16 -43 -16 0 -17 -4 -9 -25 7 -20 6 -27 -4 -31 -28
-11 -6 -34 119 -126 5 -5 30 -24 54 -43 50 -41 64 -40 71 1 6 31 18 33 106 19
26 -5 32 -2 30 12 0 11 5 17 13 15 19 -4 6 80 -14 91 -8 4 -11 15 -8 24 4 10
2 14 -5 9 -6 -3 -13 -2 -17 4 -3 5 -1 10 4 10 6 0 11 9 11 21 0 11 6 27 13 34
37 42 42 53 45 90 5 78 9 92 30 116 22 23 23 23 52 5 19 -10 38 -15 51 -11 15
5 19 4 15 -4 -7 -11 20 -28 29 -19 3 2 0 19 -5 37 -7 25 -6 33 6 38 13 5 12 9
-5 24 -11 11 -25 19 -31 19 -5 0 -10 7 -10 15 0 9 6 12 15 9 20 -8 42 46 23
58 -7 4 -19 6 -25 3 -7 -2 -13 2 -13 10 0 8 4 15 10 15 5 0 7 6 4 13 -2 7 13
31 35 53 37 39 40 40 91 36 91 -7 123 -30 85 -62 -8 -7 -15 -19 -15 -27 0 -15
-29 -64 -45 -75 -6 -5 -6 -8 0 -8 6 0 1 -7 -9 -15 -19 -14 -19 -15 0 -21 10
-4 22 -12 26 -18 5 -6 8 -3 8 9 0 14 10 23 35 31 19 6 35 8 35 3 0 -4 24 -21
53 -37 30 -17 81 -60 113 -97 58 -64 61 -66 87 -54 15 7 28 16 28 21 1 4 2 13
3 18 0 6 12 16 25 23 26 13 49 64 50 113 1 17 14 48 31 71 51 70 53 150 5 243
-15 29 -15 36 0 96 20 79 7 132 -39 170 -17 13 -37 30 -45 37 -8 6 -33 20 -55
29 -23 9 -37 17 -33 17 5 1 1 8 -7 17 -9 8 -16 26 -16 38 0 34 20 86 33 86 9
0 9 2 1 8 -6 4 -17 18 -24 32 -10 19 -10 25 0 28 7 3 21 13 31 23 19 19 19 19
19 -1 0 -21 16 -28 22 -9 2 5 16 12 30 13 15 2 40 12 55 22 15 10 45 20 66 21
42 1 58 10 40 21 -9 6 -83 137 -83 148 0 2 7 4 15 4 8 0 12 6 9 15 -5 11 1 13
26 10 18 -2 35 -6 37 -9 10 -10 43 14 43 31 0 9 -11 30 -23 47 -13 17 -27 43
-31 58 -5 23 -4 26 11 21 12 -5 15 -2 10 10 -5 12 -1 17 13 17 12 0 21 -7 22
-17 0 -10 2 -23 2 -30 2 -17 45 -73 57 -73 6 0 3 10 -5 22 -23 33 -20 41 13
35 26 -5 29 -3 33 23 3 16 0 31 -6 33 -5 2 -6 9 -2 15 5 9 13 9 26 2 27 -15
37 -12 43 10 3 11 17 24 32 30 18 7 25 15 21 25 -4 12 3 15 34 15 39 0 58 18
23 21 -59 5 -70 9 -50 18 18 7 18 8 0 30 -16 19 -22 21 -46 12 -29 -11 -61 -5
-51 10 3 5 14 9 25 9 21 0 25 20 9 36 -7 7 -1 9 20 6 34 -5 43 17 10 25 -20 5
-29 43 -10 43 14 0 12 27 -2 34 -10 5 -10 7 0 12 7 3 19 12 26 20 8 8 22 14
30 14 9 0 17 5 17 10 1 6 3 15 4 20 1 6 3 15 4 20 2 19 21 10 21 -10 0 -12 7
-20 16 -20 14 0 16 8 10 52 -4 29 -13 59 -19 67 -19 22 22 -2 55 -33 15 -14
29 -22 32 -18 3 5 -4 15 -15 22 -11 9 -19 26 -19 44 0 16 -7 38 -17 48 -15 17
-15 18 0 18 10 0 17 5 17 10 0 6 -6 9 -12 8 -7 -2 -14 8 -16 22 -3 20 -1 23 9
13 7 -7 30 -13 50 -13 31 0 38 4 43 25 4 14 11 25 17 25 7 0 9 -10 5 -25 -8
-30 4 -33 22 -4 19 29 0 48 -43 44 -33 -3 -34 -2 -28 29 7 38 8 40 28 33 8 -4
15 -16 15 -27 0 -24 15 -27 24 -4 10 26 7 34 -12 34 -10 0 -25 11 -32 25 -8
14 -29 33 -47 42 -39 18 -41 30 -8 45 14 6 25 15 25 20 0 4 6 8 14 8 8 0 17 6
19 13 4 8 8 9 14 1 12 -16 43 -25 56 -17 7 4 2 9 -13 13 -19 5 -24 12 -22 28
2 12 1 22 -1 22 -17 0 -93 -33 -99 -43 -4 -6 -26 -11 -50 -11 -29 1 -54 -6
-80 -22 -21 -13 -47 -24 -58 -24 -12 0 -20 -7 -20 -16 0 -13 7 -15 32 -10 18
3 35 11 39 17 4 7 17 8 43 0 21 -5 45 -7 53 -4 12 5 14 3 8 -6 -5 -9 -20 -11
-43 -7 -21 3 -55 -1 -84 -11 -41 -13 -47 -18 -36 -30 11 -14 7 -15 -32 -8 -45
7 -45 7 -27 -13 18 -20 18 -21 -3 -32 -17 -9 -19 -14 -9 -26 11 -13 9 -15 -12
-13 -72 7 -109 -1 -125 -26 -16 -24 -16 -27 2 -40 23 -16 10 -34 -14 -19 -13
9 -20 6 -35 -13 -10 -12 -24 -23 -30 -23 -7 -1 -19 -16 -28 -35 -16 -33 -15
-35 5 -49 l21 -15 -25 -20 c-14 -11 -34 -22 -45 -23 -11 -2 -19 -9 -17 -16 1
-8 -8 -22 -20 -32 -13 -11 -17 -19 -10 -20 22 0 12 -30 -14 -40 -14 -6 -22
-15 -19 -20 3 -6 -2 -13 -12 -17 -10 -3 -28 -13 -41 -21 -21 -14 -22 -16 -6
-33 11 -13 13 -19 5 -19 -7 0 -11 -6 -8 -12 4 -13 -28 -48 -44 -48 -8 0 -33
-41 -45 -72 -3 -10 -11 -18 -18 -18 -6 0 -11 -10 -12 -22 0 -13 -4 -41 -7 -62
-5 -28 -4 -42 5 -48 10 -6 10 -8 1 -8 -7 0 -13 -12 -13 -27 0 -32 -38 -73 -66
-73 -11 0 -30 9 -44 20 -14 11 -31 20 -37 20 -8 0 -13 13 -13 30 0 17 -4 30
-10 30 -5 0 -10 6 -10 14 0 9 -14 15 -39 18 -22 2 -37 -1 -34 -5 5 -9 -8 -7
-79 15 -38 11 -49 33 -28 54 6 6 6 22 0 44 -6 19 -10 51 -10 72 0 20 -5 38
-12 40 -10 4 -10 13 0 44 6 22 9 58 6 81 -3 29 -1 42 10 46 23 9 48 68 35 83
-9 11 -7 14 7 14 21 0 77 64 81 92 2 10 -4 19 -12 19 -34 3 -77 19 -96 35 -14
13 -22 12 -58 -8 -43 -23 -43 -23 -57 -3 -9 11 -22 19 -30 17 -8 -2 -14 5 -14
15 0 10 -13 34 -29 54 -17 20 -28 44 -27 55 2 10 -3 27 -11 36 -9 10 -13 24
-10 33 4 10 1 15 -10 15 -12 0 -14 -7 -10 -36 4 -25 2 -34 -6 -31 -7 2 -11 18
-9 36 1 17 -2 31 -8 31 -5 0 -7 -7 -4 -15 4 -8 1 -15 -5 -15 -14 0 -51 41 -51
57 0 16 -16 17 -25 3 -5 -8 -11 -8 -19 -1 -7 6 -16 8 -19 4 -4 -3 -7 3 -7 14
0 12 6 24 13 26 6 3 -2 6 -20 6 -25 1 -31 5 -27 16 4 9 0 15 -10 15 -9 0 -16
-4 -16 -10 0 -5 -9 -10 -20 -10 -11 0 -20 7 -20 15 0 8 -6 15 -13 15 -7 0 -23
9 -35 20 -12 11 -30 20 -41 20 -11 0 -22 4 -25 8 -3 5 -20 9 -37 10 -38 1 -51
12 -52 46 -1 14 -8 26 -16 26 -7 0 -11 -6 -8 -14 4 -10 -7 -17 -36 -24 -44
-12 -57 -9 -57 14 0 19 -40 34 -61 23 -9 -4 -25 -5 -37 -2 -13 3 -22 1 -22 -6
0 -6 6 -11 13 -11 14 0 40 -37 29 -43 -17 -10 -62 -17 -61 -10 4 27 -1 35 -16
23 -12 -10 -15 -10 -15 4 0 9 7 16 15 16 8 0 15 5 15 10 0 6 -8 10 -19 10 -10
0 -30 9 -45 21 -14 11 -30 18 -35 15 -5 -3 -14 1 -21 9 -16 19 -100 16 -116
-5 -10 -12 -16 -12 -37 -1 -15 8 -36 11 -51 7 -22 -5 -26 -3 -27 16 -1 17 -2
19 -6 6 -13 -49 -60 10 -50 61 4 18 2 31 -3 31 -6 0 -10 -7 -10 -15 0 -11 -11
-14 -42 -12 -24 1 -46 7 -50 12 -5 7 -14 6 -27 -2 -13 -8 -22 -9 -26 -3 -3 6
-21 10 -40 10 -20 0 -35 6 -39 15 -6 17 -24 18 -46 4z m33 -60 c-8 -8 -16 -8
-30 0 -16 9 -14 10 12 11 21 0 26 -3 18 -11z m138 -47 c-13 -9 -35 -29 -50
-44 -18 -20 -35 -28 -58 -28 -41 0 -43 -18 -3 -31 30 -11 36 -20 23 -32 -3 -4
-12 1 -18 10 -11 15 -14 14 -28 -13 -14 -25 -16 -26 -17 -8 0 34 -12 36 -37 8
-13 -16 -28 -24 -38 -21 -26 10 -17 26 30 55 47 28 53 40 33 60 -17 17 -51 15
-45 -2 8 -20 -89 -122 -112 -118 -14 2 -18 -5 -19 -39 -2 -50 -3 -51 -37 -51
-18 0 -25 -5 -21 -14 3 -8 -1 -14 -9 -14 -18 0 -18 2 -3 35 6 14 19 25 30 25
21 0 24 28 4 36 -24 9 -116 -51 -116 -75 0 -6 -7 -11 -15 -11 -20 0 -19 12 6
44 18 23 18 27 5 32 -9 3 -16 13 -16 21 0 8 -5 11 -11 7 -7 -4 -8 -19 -5 -38
5 -23 2 -34 -13 -46 -23 -18 -38 -60 -21 -60 6 0 9 -4 6 -9 -10 -15 -46 0 -46
19 0 10 -10 22 -22 26 -22 8 -22 8 6 13 36 7 44 26 14 34 l-22 6 24 26 c13 14
29 25 36 25 7 0 17 14 23 30 6 18 6 30 0 30 -5 0 -9 5 -9 11 0 6 7 8 16 5 17
-7 55 10 66 29 4 7 19 10 33 8 17 -4 27 0 31 11 3 9 17 16 30 16 34 0 20 -27
-19 -36 -29 -6 -106 -69 -107 -86 0 -14 37 -8 50 7 7 8 18 15 24 15 7 0 6 -3
-2 -9 -11 -6 -11 -10 0 -19 10 -8 21 -4 43 16 19 16 25 27 17 30 -24 8 -11 29
28 47 26 12 39 23 36 32 -4 10 10 13 59 13 35 0 67 5 70 10 3 6 23 10 43 11
20 0 46 4 57 9 11 5 38 9 60 9 l40 0 -24 -17z m129 -52 c0 -4 -11 -5 -25 -2
-14 2 -25 8 -25 12 0 4 11 5 25 2 14 -2 25 -8 25 -12z m-610 -4 c0 -16 -18
-31 -27 -22 -8 8 5 36 17 36 5 0 10 -6 10 -14z m516 -33 c-10 -10 -19 5 -10
18 6 11 8 11 12 0 2 -7 1 -15 -2 -18z m174 13 c0 -3 -4 -8 -10 -11 -5 -3 -10
-1 -10 4 0 6 5 11 10 11 6 0 10 -2 10 -4z m100 -17 c15 -26 6 -36 -16 -18 -14
11 -18 11 -29 -5 -11 -15 -16 -15 -35 -4 -18 11 -23 11 -34 -4 -16 -22 -26
-23 -26 -3 0 18 66 49 117 54 7 0 17 -8 23 -20z m-242 -19 c-7 -10 -14 -17
-17 -15 -4 4 18 35 25 35 2 0 -1 -9 -8 -20z m384 -5 c0 -17 -28 -29 -48 -21
-18 7 -17 9 6 21 27 15 41 15 42 0z m-52 -34 c0 -6 -4 -13 -10 -16 -5 -3 -10
1 -10 9 0 9 5 16 10 16 6 0 10 -4 10 -9z m93 -7 c8 -8 -20 -64 -33 -64 -5 0
-16 8 -25 17 -16 15 -15 18 7 34 24 19 40 23 51 13z m152 -4 c4 -6 -7 -10 -24
-10 -17 0 -31 5 -31 10 0 6 11 10 24 10 14 0 28 -4 31 -10z m-2905 -14 c-6 -8
-19 -12 -27 -9 -14 6 -14 8 3 14 30 12 37 10 24 -5z m2456 -23 c4 -13 3 -35
-1 -50 -6 -25 -8 -26 -17 -10 -5 10 -8 28 -5 39 4 14 2 18 -9 14 -14 -6 -64
12 -64 23 0 3 20 6 45 6 39 1 47 -3 51 -22z m-299 -10 c2 -6 -3 -13 -12 -16
-10 -5 -15 0 -15 14 0 21 21 22 27 2z m-134 -18 l18 -25 -35 2 c-25 2 -36 8
-36 19 0 36 28 38 53 4z m313 -4 c-4 -5 0 -12 6 -14 8 -3 6 -6 -4 -6 -18 -1
-24 10 -11 22 9 10 15 8 9 -2z m684 -1 c0 -5 -4 -10 -10 -10 -5 0 -10 5 -10
10 0 6 5 10 10 10 6 0 10 -4 10 -10z m213 -5 c14 4 28 2 31 -4 4 -6 18 -11 31
-11 13 0 27 -5 30 -10 4 -6 -8 -8 -32 -6 -66 8 -106 21 -111 36 -4 13 -3 13
10 2 10 -7 26 -10 41 -7z m-1638 -35 c3 -5 1 -10 -4 -10 -6 0 -11 5 -11 10 0
6 2 10 4 10 3 0 8 -4 11 -10z m170 -51 c-4 -5 -13 -9 -22 -9 -13 0 -13 3 -3
15 13 15 35 11 25 -6z m1508 15 c3 -3 3 -13 0 -21 -5 -12 -7 -12 -14 -1 -15
23 -4 40 14 22z m52 -34 c3 -5 -1 -10 -9 -10 -9 0 -16 5 -16 10 0 6 4 10 9 10
6 0 13 -4 16 -10z m-1864 -43 c-13 -13 -15 1 -4 30 7 17 8 17 11 -1 2 -10 -1
-23 -7 -29z m275 27 c-3 -9 -6 -18 -6 -20 0 -3 -4 -3 -10 1 -11 7 -2 35 12 35
6 0 7 -7 4 -16z m-1630 -34 c-1 -25 -3 -27 -15 -16 -11 12 -11 17 0 30 8 8 14
15 15 16 1 0 1 -13 0 -30z m1454 26 c0 -11 -19 -15 -25 -6 -3 5 1 10 9 10 9 0
16 -2 16 -4z m-168 -43 c-4 -20 -7 -23 -10 -10 -2 9 -8 17 -13 17 -5 0 -9 5
-9 10 0 6 8 10 19 10 15 0 17 -5 13 -27z m3498 -33 c0 -5 -4 -10 -10 -10 -5 0
-10 5 -10 10 0 6 5 10 10 10 6 0 10 -4 10 -10z m-3530 -25 c-14 -17 -30 -20
-30 -5 0 6 7 10 15 10 8 0 15 5 15 12 0 6 3 8 6 5 4 -4 1 -13 -6 -22z m1062 5
c13 -21 38 -27 38 -10 0 6 7 10 15 10 19 0 19 -8 0 -62 -18 -55 -16 -89 8
-107 15 -11 16 -15 6 -22 -12 -8 -12 -10 0 -18 16 -10 6 -31 -14 -31 -20 0
-30 -21 -14 -30 18 -12 -20 -84 -46 -88 -11 -2 -29 -7 -40 -12 -48 -23 -105
-28 -150 -14 -25 7 -52 11 -60 8 -10 -4 -22 10 -38 44 -22 45 -23 56 -14 96 6
25 14 46 19 46 4 0 8 11 8 25 0 14 7 28 15 31 8 4 15 15 15 25 0 21 11 24 27
8 8 -8 17 -7 34 1 22 12 22 13 4 26 -10 8 -27 14 -37 14 -14 0 -18 7 -16 30 2
27 18 44 18 20 0 -7 13 -9 33 -5 18 4 44 2 59 -4 22 -8 29 -7 36 5 7 13 13 14
30 5 17 -9 22 -8 27 9 8 25 21 25 37 0z m-2262 -12 c0 -16 -3 -19 -11 -11 -6
6 -8 16 -5 22 11 17 16 13 16 -11z m2155 12 c-3 -5 -12 -7 -20 -3 -21 7 -19
13 6 13 11 0 18 -4 14 -10z m320 -40 c5 -8 11 -8 20 0 9 8 14 6 19 -6 4 -11 0
-18 -14 -21 -11 -3 -20 -9 -20 -14 0 -13 5 -11 46 11 34 20 38 20 54 5 12 -11
26 -14 39 -10 14 4 23 1 27 -9 3 -9 17 -16 31 -16 23 0 25 -3 20 -32 -3 -18
-3 -27 0 -20 7 17 40 15 47 -4 4 -9 2 -22 -4 -29 -14 -16 -79 13 -98 44 -15
26 -32 27 -32 2 0 -10 9 -21 20 -24 11 -3 20 -10 20 -16 0 -16 -14 -13 -43 9
-25 20 -25 20 -20 0 7 -25 19 -35 66 -49 36 -12 52 -41 22 -41 -9 0 -18 -6
-21 -14 -8 -22 -47 -7 -41 15 3 12 0 19 -9 19 -8 0 -14 -4 -14 -9 0 -5 -12
-11 -27 -13 l-28 -4 27 -12 c30 -12 29 -42 -1 -42 -10 0 -25 -6 -36 -13 -24
-18 -3 -32 25 -17 24 13 27 -2 5 -23 -7 -8 -17 -27 -21 -42 l-7 -28 44 7 c24
4 49 13 55 21 6 8 17 15 24 15 8 0 10 8 6 24 -3 14 -1 28 4 31 6 4 8 10 5 14
-9 16 31 39 68 39 39 0 58 -15 36 -28 -10 -7 -10 -11 0 -24 7 -8 11 -21 8 -28
-4 -9 -6 -8 -6 3 -1 19 -29 45 -38 35 -4 -3 -1 -12 5 -18 18 -18 15 -38 -4
-31 -14 5 -16 1 -12 -19 4 -20 1 -24 -12 -21 -9 2 -23 -4 -31 -13 -12 -16 -12
-17 4 -11 9 3 17 2 17 -4 0 -6 -14 -7 -35 -3 -24 4 -46 1 -73 -12 -37 -18 -79
-20 -96 -4 -5 5 -15 6 -22 3 -8 -3 -14 -1 -15 3 -3 38 -9 67 -17 77 -5 7 -8
50 -7 97 2 79 3 85 23 88 12 2 22 8 22 14 0 5 -7 8 -15 4 -10 -3 -15 1 -15 12
0 23 -19 42 -41 42 -30 0 -26 23 10 62 39 40 46 44 56 28z m-107 -24 c9 -20 8
-25 -4 -30 -23 -9 -24 -8 -24 24 0 36 13 39 28 6z m2352 14 c0 -5 -2 -10 -4
-10 -3 0 -8 5 -11 10 -3 6 -1 10 4 10 6 0 11 -4 11 -10z m-2726 -61 c-3 -5
-10 -7 -15 -3 -5 3 -7 10 -3 15 3 5 10 7 15 3 5 -3 7 -10 3 -15z m2676 -19 c6
-11 8 -20 6 -20 -3 0 -10 9 -16 20 -6 11 -8 20 -6 20 3 0 10 -9 16 -20z
m-4492 -7 c2 -8 -6 -13 -22 -13 -19 0 -24 4 -19 15 6 18 34 16 41 -2z m4572 7
c0 -5 -2 -10 -4 -10 -3 0 -8 5 -11 10 -3 6 -1 10 4 10 6 0 11 -4 11 -10z
m-1887 -68 c-3 -9 -13 -25 -21 -34 -21 -25 1 -22 23 2 10 12 25 18 33 15 8 -3
21 3 28 12 12 17 13 16 14 -5 0 -20 3 -21 21 -12 17 10 21 8 26 -10 3 -13 11
-19 19 -16 8 3 21 9 29 12 9 4 15 1 15 -9 0 -8 6 -20 14 -26 8 -6 16 -23 18
-36 4 -20 1 -24 -15 -21 -11 1 -25 10 -32 19 -7 10 -26 17 -44 17 -18 0 -40 9
-52 21 -15 15 -24 18 -33 10 -7 -6 -15 -9 -18 -6 -3 3 -11 -1 -18 -10 -16 -20
-41 -20 -34 0 8 21 -13 19 -25 -2 -9 -17 -10 -17 -16 0 -4 9 -13 17 -21 17 -8
0 -14 5 -14 10 0 6 7 10 15 10 8 0 15 9 15 20 0 14 7 20 24 20 13 0 27 7 30
16 8 21 27 8 19 -14z m-123 -66 c0 -11 -19 -15 -25 -6 -3 5 1 10 9 10 9 0 16
-2 16 -4z m-1305 -56 c-3 -5 -10 -10 -16 -10 -5 0 -9 5 -9 10 0 6 7 10 16 10
8 0 12 -4 9 -10z m1533 -6 c18 -8 34 -19 37 -24 3 -5 12 -7 20 -3 11 4 17 -4
21 -26 4 -17 11 -34 17 -38 6 -4 8 2 5 15 -8 29 5 28 37 -3 30 -31 32 -40 5
-23 -27 17 -50 -3 -30 -27 20 -24 3 -17 -24 10 -31 31 -47 32 -45 3 4 -45 -1
-58 -27 -64 -16 -4 -23 -12 -20 -20 3 -8 -1 -14 -9 -14 -8 0 -15 -2 -15 -4 0
-2 -3 -12 -7 -22 -5 -13 -3 -16 10 -11 25 9 21 -10 -5 -24 -19 -10 -24 -9 -36
10 -8 11 -22 21 -31 21 -11 0 -6 -10 18 -32 19 -18 29 -34 23 -36 -14 -4 -50
32 -64 66 -16 41 -18 73 -7 117 6 22 12 51 14 64 4 37 42 63 79 56 29 -6 30
-5 12 10 -25 19 -17 19 22 -1z m-2803 -24 c3 -5 -3 -10 -14 -10 -12 0 -21 5
-21 10 0 6 6 10 14 10 8 0 18 -4 21 -10z m1222 -17 c-9 -9 -20 -13 -24 -9 -4
4 -1 11 7 16 25 16 35 11 17 -7z m1883 -68 c0 -16 -27 -32 -37 -21 -7 7 16 36
28 36 5 0 9 -7 9 -15z m-97 -45 c4 -17 3 -19 -9 -9 -8 6 -14 18 -14 26 0 20
16 8 23 -17z m137 15 c0 -8 8 -15 18 -15 14 0 15 -2 2 -10 -22 -14 -26 -13
-38 15 -10 21 -9 25 3 25 8 0 15 -7 15 -15z m-1960 -64 c0 -5 -10 -11 -22 -15
-34 -9 -38 -7 -32 9 6 16 54 21 54 6z m720 3 c0 -12 -28 -33 -35 -26 -4 4 -4
-3 -1 -16 10 -32 -20 -41 -47 -13 l-21 21 26 0 c21 0 25 4 21 20 -5 17 0 20
26 20 17 0 31 -3 31 -6z m-1821 -23 c8 -15 7 -20 -5 -25 -27 -10 -31 -7 -26
19 5 30 17 32 31 6z m4357 2 c16 -16 16 -18 1 -21 -21 -4 -59 17 -52 29 9 14
32 11 51 -8z m-2648 -39 c2 -1 0 -10 -5 -19 -8 -14 -12 -14 -35 4 -14 11 -28
29 -31 40 -4 18 -3 18 32 -2 20 -11 38 -22 39 -23z m182 33 c0 -8 -16 -31 -35
-53 -29 -32 -36 -36 -45 -24 -14 22 -12 28 10 35 13 4 20 15 20 31 0 19 5 24
25 24 14 0 25 -6 25 -13z m1280 -2 c0 -8 -4 -15 -10 -15 -5 0 -10 7 -10 15 0
8 5 15 10 15 6 0 10 -7 10 -15z m-1772 -24 c-2 -5 -14 -4 -28 2 l-25 10 25 6
c24 7 35 0 28 -18z m777 9 c3 -5 -1 -10 -9 -10 -9 0 -16 5 -16 10 0 6 4 10 9
10 6 0 13 -4 16 -10z m-1445 -26 c0 -9 5 -12 11 -8 6 3 3 -5 -6 -19 -16 -25
-14 -47 6 -47 5 0 9 6 9 14 0 15 24 28 34 19 11 -12 6 -22 -15 -28 -11 -4 -18
-12 -16 -18 21 -52 21 -53 -6 -28 -15 14 -27 30 -27 38 0 7 -4 13 -10 13 -5 0
-10 -7 -10 -15 0 -9 -7 -18 -15 -21 -8 -4 -15 -12 -15 -19 0 -8 -12 -12 -32
-11 -29 1 -33 -2 -34 -24 -2 -41 -3 -45 -16 -32 -7 7 -21 12 -31 12 -16 0 -17
3 -7 15 7 8 15 13 19 10 4 -2 15 5 24 16 16 18 16 22 2 43 -16 23 -15 24 14
31 17 3 47 24 68 45 38 38 53 42 53 14z m73 -5 c-6 -23 -19 -25 -27 -3 -8 21
1 34 18 28 8 -3 12 -14 9 -25z m2427 16 c0 -8 -4 -15 -9 -15 -5 0 -11 7 -15
15 -3 9 0 15 9 15 8 0 15 -7 15 -15z m1090 1 c0 -8 -31 -36 -41 -36 -17 0 -9
17 14 28 27 13 27 13 27 8z m-2090 -20 c0 -11 -19 -15 -25 -6 -3 5 1 10 9 10
9 0 16 -2 16 -4z m950 -39 c0 -5 -14 0 -30 10 -26 15 -28 19 -13 24 17 6 42
-14 43 -34z m-100 23 c0 -5 -7 -10 -15 -10 -8 0 -15 5 -15 10 0 6 7 10 15 10
8 0 15 -4 15 -10z m-1401 -19 c18 -14 21 -20 10 -26 -7 -5 -14 -4 -17 3 -2 7
-12 12 -23 12 -10 0 -19 7 -19 15 0 20 20 19 49 -4z m1396 -13 c6 -6 5 -12 -5
-18 -34 -22 -68 -5 -56 26 6 16 41 12 61 -8z m-945 -13 c0 -2 -7 -5 -15 -9 -9
-3 -15 0 -15 9 0 9 6 12 15 9 8 -4 15 -7 15 -9z m19 -31 c-9 -11 -15 -12 -23
-4 -8 8 -7 13 4 20 20 12 33 1 19 -16z m2096 7 c-16 -14 -55 -23 -55 -12 0 9
20 17 50 20 8 1 10 -2 5 -8z m-1165 -32 c0 -13 -4 -18 -12 -13 -8 5 -9 2 -5
-9 7 -19 -8 -23 -18 -6 -4 6 1 19 11 29 24 24 24 24 24 -1z m-2885 -8 c3 -5 1
-12 -5 -16 -5 -3 -10 1 -10 9 0 18 6 21 15 7z m85 -10 c0 -14 -18 -23 -30 -16
-6 4 -8 11 -5 16 8 12 35 12 35 0z m448 -3 c-2 -6 -10 -14 -16 -16 -7 -2 -10
2 -6 12 7 18 28 22 22 4z m-68 -18 c0 -5 -4 -10 -10 -10 -5 0 -10 5 -10 10 0
6 5 10 10 10 6 0 10 -4 10 -10z m-104 -50 c17 0 18 -12 2 -28 -17 -17 -58 -15
-65 4 -4 11 2 23 18 35 20 15 25 16 27 4 2 -8 10 -15 18 -15z m1813 1 c12 -8
12 -12 -2 -26 -10 -9 -17 -23 -17 -31 0 -23 -36 -16 -48 10 -11 25 -5 37 28
49 21 8 23 8 39 -2z m106 -1 c3 -5 -8 -16 -25 -25 -24 -13 -30 -13 -30 -2 0
11 21 27 47 36 1 1 4 -3 8 -9z m-75 -44 c0 -2 -7 -7 -16 -10 -8 -3 -12 -2 -9
4 6 10 25 14 25 6z m947 -780 c-2 -6 -19 -19 -38 -29 -51 -28 -58 -38 -21 -31
20 4 32 2 32 -4 0 -13 -125 -42 -181 -42 -55 0 -44 11 22 21 35 6 58 16 74 34
26 27 22 34 -5 10 -27 -24 -73 -34 -88 -19 -15 16 -9 20 48 29 25 4 58 14 73
22 30 15 52 9 27 -7 -8 -6 -10 -10 -4 -10 15 0 36 25 28 33 -4 3 3 5 15 4 12
-1 20 -6 18 -11z m-666 -73 c37 -22 39 -53 4 -53 -20 0 -25 5 -25 25 0 14 -4
25 -10 25 -5 0 -10 5 -10 10 0 14 8 13 41 -7z m-51 -29 c0 -14 -4 -22 -10 -19
-5 3 -10 17 -10 31 0 14 4 22 10 19 6 -3 10 -17 10 -31z m-128 -9 c-5 -29 -32
-34 -32 -7 0 22 8 32 25 32 8 0 10 -10 7 -25z m-402 -43 c0 -4 -10 -13 -22
-21 -23 -14 -23 -14 -4 8 20 22 26 25 26 13z m-26 -210 c-1 -7 -2 -21 -2 -31
-1 -10 -8 -21 -15 -24 -9 -3 -11 6 -9 35 3 23 9 37 16 35 6 -2 11 -9 10 -15z
m423 12 c-3 -3 -12 -4 -19 -1 -8 3 -5 6 6 6 11 1 17 -2 13 -5z m451 -46 c-3
-7 -10 -13 -15 -13 -6 0 -15 -3 -19 -7 -4 -5 -2 -8 4 -8 7 0 12 -7 12 -15 0
-8 -6 -15 -14 -15 -16 0 -30 43 -16 48 6 2 8 8 4 13 -3 5 7 9 21 9 17 0 25 -5
23 -12z m716 -970 c-1 -13 -3 -28 -3 -35 -2 -19 -41 -11 -41 9 0 9 -4 20 -10
23 -5 3 -10 13 -10 21 0 11 6 13 20 9 12 -4 20 -2 20 6 0 8 3 9 13 0 8 -6 13
-21 11 -33z m-232 -55 c9 -21 14 -41 11 -45 -8 -15 -35 -8 -65 18 -30 24 -30
25 -9 31 11 3 21 12 21 19 0 28 26 13 42 -23z m153 -190 c13 -13 16 -27 11
-62 -5 -42 6 -95 27 -128 13 -20 18 -81 7 -88 -6 -3 -10 -16 -10 -28 0 -13
-19 -41 -45 -67 -24 -25 -44 -48 -45 -53 0 -4 -11 -24 -24 -45 -25 -39 -26
-43 -26 -68 0 -9 -5 -14 -12 -12 -11 4 -16 17 -34 83 -3 11 -7 40 -9 65 -1 25
-3 50 -5 55 -6 23 1 26 25 11 14 -9 25 -13 25 -10 0 4 9 -1 20 -11 19 -18 20
-17 20 3 0 11 -6 23 -12 25 -10 4 -10 7 0 14 7 5 12 29 12 54 -1 24 5 78 13
119 8 41 12 82 10 91 -3 9 0 20 6 23 6 4 11 16 11 27 0 23 13 24 35 2z m-486
-290 c-31 -51 -58 -81 -90 -98 -25 -13 -27 -12 -38 11 -9 22 -9 24 7 22 11 -2
16 3 14 15 -2 11 6 21 22 27 13 5 27 18 31 29 3 12 11 21 17 21 5 0 8 6 5 14
-8 19 24 26 42 10 11 -10 10 -18 -10 -51z m561 37 c0 -5 -2 -10 -4 -10 -3 0
-8 5 -11 10 -3 6 -1 10 4 10 6 0 11 -4 11 -10z m-170 -8 c0 -13 -12 -22 -22
-16 -10 6 -1 24 13 24 5 0 9 -4 9 -8z m-270 -193 c0 -10 6 -20 13 -22 7 -4 8
-6 1 -6 -16 -1 -30 19 -38 54 -6 28 -5 29 9 11 8 -11 15 -28 15 -37z m-933 -5
c-3 -3 -12 -4 -19 -1 -8 3 -5 6 6 6 11 1 17 -2 13 -5z m103 -183 c0 -9 6 -23
13 -30 10 -10 8 -15 -6 -25 -11 -9 -15 -20 -10 -32 6 -16 4 -17 -9 -6 -18 14
-28 66 -21 105 4 22 8 25 19 16 8 -6 14 -19 14 -28z m-646 15 c33 -14 63 -42
31 -30 -11 5 -14 2 -9 -10 7 -18 -20 -23 -31 -6 -3 6 -11 10 -16 10 -6 0 -7
-4 -4 -10 12 -19 -20 -9 -50 15 l-30 25 28 0 c15 0 27 5 27 10 0 14 15 13 54
-4z m1076 -231 c0 -8 -4 -15 -8 -15 -5 0 -9 7 -9 15 0 8 4 15 9 15 4 0 8 -7 8
-15z m-722 -22 c3 -20 42 -40 42 -22 0 5 5 9 10 9 16 0 12 -28 -6 -38 -9 -5
-17 -21 -17 -35 -2 -30 -12 -35 -21 -12 -4 11 -13 14 -30 9 -22 -5 -24 -3 -28
43 -3 35 0 51 12 60 20 16 34 11 38 -14z m49 1 c-3 -3 -12 -4 -19 -1 -8 3 -5
6 6 6 11 1 17 -2 13 -5z m1387 -368 c-3 -9 -10 -16 -15 -16 -14 0 -11 28 4 33
16 6 19 3 11 -17z m-844 -216 c0 -5 -2 -10 -4 -10 -3 0 -8 5 -11 10 -3 6 -1
10 4 10 6 0 11 -4 11 -10z m786 -250 c16 -16 35 -30 42 -30 15 0 16 -50 0 -50
-19 0 -96 82 -91 97 8 19 16 16 49 -17z m-56 -23 c9 -7 22 -32 30 -57 7 -25
17 -49 22 -54 4 -6 8 -18 8 -28 0 -9 6 -21 13 -25 7 -4 24 -23 39 -40 25 -31
26 -39 24 -115 -2 -46 -6 -90 -9 -98 -9 -24 -2 -82 12 -112 11 -21 11 -31 3
-41 -7 -8 -13 -31 -14 -53 -2 -21 -7 -42 -12 -46 -8 -5 -11 -18 -15 -62 -1 -5
-9 -2 -19 7 -10 10 -22 14 -25 11 -4 -4 -11 4 -16 18 -5 13 -17 30 -27 38 -16
13 -17 13 -11 -2 3 -10 4 -25 1 -33 -6 -14 -8 -13 -19 1 -8 11 -14 13 -19 6
-3 -6 1 -18 10 -26 11 -11 14 -25 10 -42 -6 -23 -4 -24 21 -18 16 4 32 9 38
12 14 9 56 12 51 4 -2 -4 3 -24 13 -44 13 -30 20 -35 34 -27 9 6 17 20 17 32
0 12 9 37 21 56 l20 34 23 -34 c34 -49 41 -92 22 -130 -9 -18 -16 -41 -16 -51
0 -11 -14 -33 -31 -50 l-30 -31 -15 29 c-11 21 -12 34 -5 51 6 12 6 25 2 28
-15 8 -30 -19 -34 -61 -2 -28 -7 -38 -18 -36 -8 2 -24 6 -36 8 -47 9 -74 24
-83 48 -11 31 -1 98 17 109 19 12 16 27 -6 27 -10 0 -21 -7 -25 -15 -3 -8 -12
-15 -20 -15 -9 0 -12 -7 -9 -20 4 -15 0 -20 -16 -20 -22 0 -47 41 -42 69 1 7
-2 10 -8 7 -5 -4 -14 1 -20 11 -8 17 -120 133 -127 133 -2 0 -1 -7 2 -15 4
-10 0 -15 -14 -15 -15 0 -22 -9 -27 -30 -4 -16 -10 -30 -15 -30 -4 0 -11 -10
-15 -22 -6 -20 -8 -20 -12 -5 -2 9 -9 15 -14 12 -5 -4 -9 1 -9 9 0 9 -9 21
-20 28 -11 7 -20 20 -20 30 0 9 -5 20 -11 24 -11 7 -4 53 11 68 6 5 15 4 24
-3 8 -7 19 -10 24 -7 5 3 21 -5 36 -19 l26 -24 -2 38 c-2 22 -7 37 -12 34 -5
-3 -7 6 -4 20 4 19 0 28 -13 32 -9 3 -20 12 -23 20 -3 8 -14 15 -24 15 -10 0
-24 11 -30 25 -6 14 -18 25 -27 25 -8 0 -15 8 -15 17 0 9 -6 24 -14 32 -17 19
-22 58 -13 87 9 24 44 45 80 47 14 1 23 5 20 10 -2 4 0 7 6 7 6 0 17 -13 25
-28 8 -16 21 -34 29 -40 12 -10 13 -8 9 13 -10 53 47 1 61 -55 8 -32 95 -120
119 -120 10 0 18 -4 18 -10 0 -5 4 -10 8 -10 4 0 9 16 10 36 2 28 -5 44 -33
76 -19 23 -36 53 -37 67 0 14 -2 32 -2 39 -1 7 -16 25 -34 41 -21 17 -33 35
-31 47 2 10 0 25 -4 32 -5 7 -2 19 7 28 9 8 16 20 16 25 0 6 15 7 37 3 30 -6
35 -4 30 8 -3 9 0 21 6 27 6 6 8 11 4 11 -3 0 4 11 16 24 13 14 38 26 57 29
19 2 40 4 45 5 6 1 17 -4 25 -11z m265 -462 c8 -16 16 -43 18 -60 3 -16 8 -37
12 -46 7 -18 -33 -84 -64 -106 -18 -12 -19 -9 -26 59 -4 39 -11 85 -16 102 -6
20 -5 32 1 34 6 2 8 7 5 12 -3 5 0 20 6 34 10 21 14 23 31 13 10 -7 25 -25 33
-42z m64 -341 c1 -43 -3 -65 -14 -74 -13 -11 -15 -8 -15 21 1 19 -2 51 -6 72
-4 22 -2 43 4 50 6 7 9 24 6 38 -2 15 1 10 10 -11 8 -19 15 -63 15 -96z m339
-72 c3 -9 -2 -13 -14 -10 -9 1 -19 9 -22 16 -3 9 2 13 14 10 9 -1 19 -9 22
-16z m-3326 -92 c-4 -3 -7 -11 -8 -17 -3 -34 -5 -38 -14 -22 -11 19 10 75 22
56 4 -6 4 -14 0 -17z m3248 -45 c0 -12 -29 -3 -34 11 -11 29 -6 34 14 14 11
-11 20 -22 20 -25z m34 -59 c-1 -9 2 -16 7 -16 16 0 9 -25 -10 -37 -16 -10
-20 -9 -26 5 -3 9 -2 18 3 20 5 1 7 14 4 29 -4 19 -1 24 9 21 8 -3 13 -13 13
-22z m-1735 -105 c12 -8 13 -14 3 -35 -11 -25 -42 -37 -42 -16 0 6 -4 10 -10
10 -16 0 -12 -21 7 -43 17 -18 17 -20 -10 -41 -27 -22 -36 -46 -17 -46 22 0 8
-20 -17 -26 -27 -7 -52 -30 -53 -48 0 -4 6 -6 13 -3 6 3 20 8 30 12 21 9 23
-12 4 -48 -11 -21 -16 -24 -27 -14 -10 10 -12 6 -7 -20 8 -44 -10 -58 -51 -38
-36 18 -46 39 -31 67 8 16 8 22 -2 29 -19 11 8 88 35 100 28 11 56 34 56 45 0
5 10 18 21 28 14 12 18 20 11 25 -14 8 21 41 43 41 8 0 15 7 15 15 0 17 9 19
29 6z m-899 -36 c0 -10 10 -15 30 -15 17 0 30 -2 30 -4 0 -11 -56 -102 -67
-109 -15 -9 -18 -57 -3 -57 6 0 10 5 10 12 0 6 2 9 5 6 3 -2 -2 -20 -11 -38
-16 -32 -18 -32 -31 -14 -14 19 -14 19 -29 0 -19 -26 -18 -33 6 -39 12 -3 20
-14 20 -26 0 -15 6 -21 21 -21 12 0 19 -5 16 -12 -2 -7 -13 -12 -23 -11 -26 2
-33 -14 -21 -47 9 -23 7 -36 -9 -65 -22 -42 -30 -49 -44 -40 -7 4 -8 11 -2 18
16 19 20 108 5 103 -20 -8 -25 12 -12 51 10 31 9 37 -5 45 -25 14 -20 59 11
84 19 15 24 26 19 40 -7 18 -8 17 -26 -6 -11 -14 -20 -20 -20 -15 -1 6 -3 23
-5 39 -4 32 20 76 41 76 8 0 14 5 14 10 0 6 6 10 13 10 8 0 22 9 32 20 22 24
35 26 35 5z m1113 -24 c-5 -20 -83 -78 -83 -62 0 14 62 81 76 81 7 0 10 -8 7
-19z m-907 -6 c4 -9 -4 -25 -20 -40 -29 -27 -30 -29 -15 -56 7 -14 7 -29 -2
-54 -10 -26 -10 -37 -1 -48 13 -15 6 -27 -15 -27 -7 0 -13 7 -13 15 0 9 -9 35
-20 57 -22 46 -25 68 -10 68 6 0 10 7 10 17 0 22 48 83 66 83 8 0 17 -7 20
-15z m149 5 c3 -5 3 -16 -2 -22 -4 -7 -8 -20 -8 -28 -1 -8 -2 -26 -3 -40 -1
-15 -11 -29 -24 -35 -28 -13 -31 -25 -13 -49 12 -16 17 -17 30 -6 12 10 15 10
15 -3 0 -8 -7 -20 -15 -27 -19 -16 -19 -34 0 -27 23 9 28 -11 6 -23 -37 -19
-45 -47 -22 -77 24 -30 30 -73 8 -54 -19 15 -27 4 -20 -31 4 -22 2 -33 -10
-40 -24 -13 -21 -37 8 -80 21 -31 22 -38 10 -48 -8 -7 -15 -21 -15 -31 0 -27
-15 -31 -34 -10 -16 18 -16 22 -1 50 15 29 14 32 -5 53 -23 25 -25 39 -7 57 6
6 13 29 14 49 1 20 5 52 8 70 5 22 4 32 -5 32 -15 0 -7 64 10 85 10 13 9 19
-5 35 -10 11 -15 28 -12 40 3 11 1 17 -4 14 -6 -3 -9 11 -8 33 4 67 80 151
104 113z m861 -14 c19 -19 18 -26 -4 -26 -10 0 -23 -5 -29 -11 -16 -16 -4 -49
18 -49 26 0 35 -26 16 -45 -9 -8 -18 -15 -22 -15 -12 0 -35 29 -35 44 0 22
-29 20 -37 -1 -8 -21 -24 -34 -35 -27 -25 16 21 124 53 124 10 0 21 5 24 10 9
14 34 12 51 -4z m-1486 -16 c0 -7 14 -9 38 -5 l37 6 -22 -19 c-27 -23 -30 -42
-7 -42 13 0 13 -4 -3 -32 -10 -18 -21 -35 -24 -38 -9 -8 -29 -48 -29 -59 0 -5
11 -8 25 -5 23 4 24 2 18 -28 -3 -18 -10 -35 -14 -38 -4 -3 -7 -27 -7 -54 0
-40 -5 -53 -24 -67 -19 -15 -21 -20 -10 -31 10 -10 14 -9 18 10 10 37 35 27
32 -13 -2 -36 -15 -44 -37 -22 -11 10 -12 9 -6 -3 5 -8 8 -29 7 -46 -2 -21 3
-34 13 -37 8 -4 12 -13 9 -22 -5 -12 -10 -13 -19 -5 -11 9 -16 2 -23 -32 l-9
-43 -13 28 c-11 22 -11 31 0 52 12 22 11 27 -5 45 -13 14 -16 28 -11 52 9 46
7 91 -4 102 -23 23 -3 116 25 116 8 0 15 5 15 11 0 7 -11 8 -30 4 -35 -8 -39
8 -14 56 14 28 14 32 0 48 -25 27 -19 59 16 92 33 29 58 38 58 19z m857 -4
c-15 -39 -17 -55 -7 -61 16 -10 12 -26 -7 -23 -13 2 -18 -4 -18 -24 -1 -15
-10 -34 -20 -43 -23 -16 -45 -19 -45 -6 0 5 6 12 13 15 9 5 9 7 0 12 -14 6 -3
30 34 72 13 13 20 29 17 34 -9 15 3 35 20 35 9 0 15 -5 13 -11z m726 -6 c-5
-19 -23 -29 -23 -12 0 7 20 32 26 32 1 0 0 -9 -3 -20z m151 -2 c-8 -28 -23
-48 -35 -48 -14 0 -11 23 7 48 20 29 37 29 28 0z m-724 -18 c-6 -11 -13 -20
-15 -20 -3 0 -5 9 -5 20 0 11 7 20 15 20 13 0 14 -4 5 -20z m800 -5 c0 -19 -4
-23 -17 -18 -11 4 -14 3 -9 -5 4 -7 1 -12 -8 -12 -20 0 -20 -4 -1 -40 10 -19
20 -27 30 -24 8 4 15 1 15 -6 0 -6 -8 -14 -17 -17 -22 -5 -53 -64 -53 -98 0
-30 -15 -32 -30 -5 -9 17 -6 30 15 67 26 46 21 69 -12 56 -16 -6 -16 10 -3 57
7 24 20 40 43 52 43 22 47 22 47 -7z m-220 -15 c0 -5 -4 -10 -10 -10 -5 0 -10
5 -10 10 0 6 5 10 10 10 6 0 10 -4 10 -10z m-969 -73 c-8 -8 -11 -7 -11 4 0
20 13 34 18 19 3 -7 -1 -17 -7 -23z m-741 -3 c0 -17 -22 -14 -28 4 -2 7 3 12
12 12 9 0 16 -7 16 -16z m1545 -6 c6 -14 17 -22 29 -20 24 4 19 -7 -28 -58
-29 -33 -40 -39 -47 -29 -13 22 -11 67 6 99 19 36 27 37 40 8z m-1565 -37 c0
-12 -20 -25 -27 -18 -7 7 6 27 18 27 5 0 9 -4 9 -9z m-320 -31 c0 -5 7 -7 15
-4 24 10 18 -20 -9 -45 -37 -35 -61 -8 -36 40 11 20 30 26 30 9z m880 -22 c0
-24 -21 -46 -40 -41 -24 6 -24 7 -4 38 15 22 44 25 44 3z m410 11 c0 -13 -61
-89 -71 -89 -4 0 -11 9 -14 20 -8 25 10 50 35 50 10 0 20 7 24 15 6 17 26 20
26 4z m650 -36 c0 -7 -4 -13 -8 -13 -15 0 -32 24 -32 44 0 18 1 19 20 1 11
-10 20 -24 20 -32z m-2186 1 c3 -8 1 -25 -5 -36 -6 -11 -9 -28 -6 -37 3 -14
-1 -17 -19 -13 -18 3 -22 10 -22 34 1 16 7 32 15 35 7 3 13 11 13 19 0 19 16
18 24 -2z m2156 -49 c11 -35 6 -75 -10 -75 -39 0 -51 35 -28 85 15 34 24 32
38 -10z m-1019 -16 c-16 -15 -19 -27 -15 -46 6 -23 5 -24 -15 -14 -24 14 -24
12 -11 45 5 14 16 26 24 26 7 0 17 8 21 18 5 12 9 13 12 4 3 -8 -4 -22 -16
-33z m-855 -6 c-4 -4 -11 -1 -16 7 -16 25 -11 35 7 17 9 -9 13 -20 9 -24z
m1509 17 c0 -8 -8 -16 -17 -18 -13 -2 -18 3 -18 18 0 15 5 20 18 18 9 -2 17
-10 17 -18z m-58 -18 c6 -4 15 -20 19 -36 6 -27 5 -29 -17 -23 -29 8 -49 -8
-49 -39 0 -32 -18 -30 -31 2 -10 28 -4 64 11 64 5 0 12 9 15 20 6 20 30 26 52
12z m-257 -32 c4 -30 0 -40 -19 -40 -11 0 -22 -6 -24 -12 -3 -8 -6 -5 -6 5 -1
10 6 32 15 49 15 29 30 29 34 -2z m-1185 -10 c0 -7 -6 -15 -12 -17 -8 -3 -13
4 -13 17 0 13 5 20 13 18 6 -3 12 -11 12 -18z m1912 -69 c10 -16 9 -24 -8 -45
-11 -14 -25 -26 -30 -26 -13 0 -11 64 3 78 16 16 21 15 35 -7z m-2079 -8 c-4
-22 -22 -20 -26 1 -2 10 3 16 13 16 10 0 15 -7 13 -17z m977 -23 c-4 -12 -9
-19 -12 -17 -3 3 -2 15 2 27 4 12 9 19 12 17 3 -3 2 -15 -2 -27z m-164 -1 c-2
-8 -6 -31 -9 -52 -5 -41 -19 -57 -33 -36 -8 13 -4 62 7 97 5 18 40 10 35 -9z
m540 -11 c6 -23 4 -28 -10 -28 -9 0 -23 -6 -30 -12 -11 -11 -13 -9 -7 12 3 14
6 33 6 43 0 29 32 16 41 -15z m-1171 3 c-13 -25 -27 -34 -34 -22 -10 16 5 41
25 41 16 0 18 -3 9 -19z m178 -16 c2 -10 -8 -28 -22 -42 -14 -13 -26 -30 -26
-38 0 -18 -26 -9 -34 12 -8 21 3 55 15 48 5 -4 9 5 9 19 0 21 4 24 28 22 16
-2 28 -10 30 -21z m-308 -6 c0 -5 -9 -9 -20 -9 -22 0 -27 16 -7 23 15 5 27 -1
27 -14z m1567 -34 c1 -22 -4 -35 -12 -35 -19 0 -27 28 -15 51 16 29 26 23 27
-16z m-271 -63 c9 -9 12 -22 8 -36 -8 -27 -11 -29 -23 -21 -6 3 -10 30 -10 58
1 29 4 43 6 33 3 -11 12 -26 19 -34z m734 17 c0 -24 -23 -21 -28 4 -2 10 3 17
12 17 10 0 16 -9 16 -21z m-1440 -5 c0 -8 -5 -12 -10 -9 -6 4 -8 11 -5 16 9
14 15 11 15 -7z m180 -30 c0 -8 -7 -14 -15 -14 -15 0 -21 21 -9 33 10 9 24 -2
24 -19z m-243 -46 c-3 -8 -6 -5 -6 6 -1 11 2 17 5 13 3 -3 4 -12 1 -19z m1043
-13 c0 -8 -4 -15 -10 -15 -5 0 -7 7 -4 15 4 8 8 15 10 15 2 0 4 -7 4 -15z
m1350 -25 c0 -5 -4 -10 -10 -10 -5 0 -10 5 -10 10 0 6 5 10 10 10 6 0 10 -4
10 -10z m-2366 -25 c3 -8 1 -15 -4 -15 -6 0 -10 7 -10 15 0 8 2 15 4 15 2 0 6
-7 10 -15z"/>
<path d="M4950 8700 c0 -5 5 -10 10 -10 6 0 10 5 10 10 0 6 -4 10 -10 10 -5 0
-10 -4 -10 -10z"/>
<path d="M4695 8590 c-3 -5 1 -10 9 -10 8 0 18 5 21 10 3 6 -1 10 -9 10 -8 0
-18 -4 -21 -10z"/>
<path d="M5112 8067 c-6 -7 -25 -12 -42 -11 -35 2 -37 -4 -10 -39 25 -32 25
-34 -5 -41 -14 -4 -25 -14 -25 -22 0 -10 -6 -14 -14 -11 -11 4 -13 -1 -10 -21
5 -27 28 -52 49 -52 17 0 70 53 99 98 14 23 31 42 37 42 5 0 7 5 4 10 -3 6
-17 10 -31 10 -19 0 -24 5 -24 25 0 27 -12 32 -28 12z"/>
<path d="M5190 7930 c0 -5 5 -10 10 -10 6 0 10 5 10 10 0 6 -4 10 -10 10 -5 0
-10 -4 -10 -10z"/>
<path d="M5640 7890 c0 -5 5 -10 10 -10 6 0 10 5 10 10 0 6 -4 10 -10 10 -5 0
-10 -4 -10 -10z"/>
<path d="M5615 7860 c3 -5 8 -10 11 -10 2 0 4 5 4 10 0 6 -5 10 -11 10 -5 0
-7 -4 -4 -10z"/>
<path d="M5910 7891 c0 -5 5 -13 10 -16 6 -3 10 -2 10 4 0 5 -4 13 -10 16 -5
3 -10 2 -10 -4z"/>
<path d="M5890 7791 c0 -11 31 -24 39 -16 3 3 -1 10 -9 15 -19 12 -30 12 -30
1z"/>
<path d="M4490 1975 c0 -8 5 -15 10 -15 6 0 10 -9 10 -21 0 -14 5 -19 17 -17
22 4 30 38 10 38 -8 0 -17 7 -21 15 -3 8 -10 15 -16 15 -5 0 -10 -7 -10 -15z"/>
<path d="M4290 1939 c0 -18 2 -19 15 -9 15 12 12 30 -6 30 -5 0 -9 -10 -9 -21z"/>
<path d="M5465 8790 c3 -5 10 -10 16 -10 5 0 9 5 9 10 0 6 -7 10 -16 10 -8 0
-12 -4 -9 -10z"/>
<path d="M2815 8730 c3 -5 8 -10 11 -10 2 0 4 5 4 10 0 6 -5 10 -11 10 -5 0
-7 -4 -4 -10z"/>
<path d="M6023 8593 c-20 -8 -15 -23 7 -23 11 0 20 7 20 15 0 15 -6 17 -27 8z"/>
<path d="M3065 8550 c3 -5 13 -10 21 -10 8 0 12 5 9 10 -3 6 -13 10 -21 10 -8
0 -12 -4 -9 -10z"/>
<path d="M2620 8542 c0 -6 7 -12 15 -16 8 -3 12 -12 9 -20 -7 -18 9 -28 32
-19 14 5 15 8 3 17 -8 6 -14 18 -14 26 0 8 -10 16 -22 18 -13 2 -23 -1 -23 -6z"/>
<path d="M4050 8479 c0 -5 5 -7 10 -4 6 3 10 8 10 11 0 2 -4 4 -10 4 -5 0 -10
-5 -10 -11z"/>
<path d="M4159 8473 c-7 -13 -20 -23 -27 -23 -7 0 -16 -8 -19 -17 -4 -9 -16
-26 -27 -37 -15 -15 -17 -21 -6 -24 7 -3 24 8 36 24 13 16 33 39 45 51 11 12
19 28 17 35 -3 9 -9 6 -19 -9z"/>
<path d="M6210 8451 c0 -5 7 -14 15 -21 16 -14 18 -10 9 14 -6 17 -24 22 -24
7z"/>
<path d="M3945 8380 c-3 -5 -1 -10 4 -10 6 0 11 5 11 10 0 6 -2 10 -4 10 -3 0
-8 -4 -11 -10z"/>
<path d="M7870 8366 c0 -9 5 -16 10 -16 6 0 10 4 10 9 0 6 -4 13 -10 16 -5 3
-10 -1 -10 -9z"/>
<path d="M3870 8355 c-8 -9 -9 -23 -3 -40 l8 -26 28 25 c15 14 27 30 27 36 0
5 -9 1 -20 -10 -28 -28 -44 -25 -24 5 17 27 5 35 -16 10z"/>
<path d="M6330 8350 c0 -5 5 -10 11 -10 5 0 7 5 4 10 -3 6 -8 10 -11 10 -2 0
-4 -4 -4 -10z"/>
<path d="M4015 8330 c-4 -6 -25 -23 -48 -37 -39 -25 -40 -26 -19 -34 32 -12
29 -43 -3 -36 -18 3 -29 -1 -36 -14 -5 -11 -17 -19 -27 -20 -10 0 -12 -3 -4
-6 6 -2 12 -12 12 -20 0 -14 2 -14 19 1 16 15 19 15 24 1 4 -8 13 -15 22 -15
12 0 14 7 9 28 -5 22 -4 25 7 15 18 -18 39 -16 46 5 3 9 19 33 35 53 34 44 35
57 6 61 -13 2 -22 9 -20 16 3 15 -14 16 -23 2z"/>
<path d="M4750 8299 c0 -5 5 -7 10 -4 6 3 10 8 10 11 0 2 -4 4 -10 4 -5 0 -10
-5 -10 -11z"/>
<path d="M2747 8273 c-14 -4 -16 -8 -6 -19 6 -7 15 -11 21 -8 5 3 16 0 24 -7
8 -6 17 -10 19 -7 6 6 -24 48 -33 47 -4 -1 -15 -3 -25 -6z"/>
<path d="M6417 8255 c-4 -8 -2 -17 3 -20 6 -4 10 3 10 14 0 25 -6 27 -13 6z"/>
<path d="M4671 8211 c-21 -14 -6 -38 23 -38 29 0 30 1 16 28 -12 21 -18 23
-39 10z"/>
<path d="M4764 8212 c-6 -4 -14 -17 -18 -29 -6 -19 -4 -23 13 -23 12 0 20 -3
19 -7 -3 -7 5 -13 17 -13 2 0 0 12 -5 26 -7 19 -7 31 1 40 9 11 8 14 -2 14 -8
0 -19 -4 -25 -8z"/>
<path d="M3832 8188 c-7 -7 -12 -18 -12 -25 0 -7 -9 -13 -19 -13 -17 0 -31
-18 -31 -40 0 -4 9 -10 19 -13 14 -3 18 -11 14 -26 -3 -12 -1 -21 5 -21 14 0
21 37 9 49 -7 7 -2 17 16 31 16 13 27 31 27 46 0 26 -9 31 -28 12z"/>
<path d="M2815 8130 c3 -5 11 -10 16 -10 6 0 7 5 4 10 -3 6 -11 10 -16 10 -6
0 -7 -4 -4 -10z"/>
<path d="M4614 8111 c-4 -18 -14 -31 -28 -35 -17 -5 -18 -8 -7 -15 16 -11 8
-39 -14 -46 -49 -16 -50 -17 -16 -27 44 -12 69 -5 108 29 26 24 29 31 19 47
-8 14 -8 20 1 23 15 5 3 19 -35 41 -21 11 -23 10 -28 -17z"/>
<path d="M4137 8123 c-4 -3 -7 -11 -7 -17 0 -6 5 -5 12 2 6 6 9 14 7 17 -3 3
-9 2 -12 -2z"/>
<path d="M4080 8105 c-7 -9 -11 -18 -8 -20 3 -3 11 1 18 10 7 9 11 18 8 20 -3
3 -11 -1 -18 -10z"/>
<path d="M4101 8087 c-6 -8 -30 -20 -53 -27 -39 -11 -41 -13 -20 -21 12 -5 22
-13 22 -19 0 -23 20 -7 43 35 26 46 29 56 8 32z"/>
<path d="M4336 8082 c-3 -6 -1 -14 5 -17 15 -10 25 3 12 16 -7 7 -13 7 -17 1z"/>
<path d="M7165 8080 c-3 -5 1 -10 10 -10 9 0 13 5 10 10 -3 6 -8 10 -10 10 -2
0 -7 -4 -10 -10z"/>
<path d="M4277 8069 c-10 -6 -23 -9 -30 -6 -16 5 -51 -29 -42 -42 3 -6 -3 -24
-14 -40 -24 -33 -26 -41 -9 -41 6 0 19 -7 29 -16 24 -22 39 -10 37 29 -1 36
26 95 48 104 14 5 20 23 7 23 -5 0 -16 -5 -26 -11z"/>
<path d="M4555 8030 c-3 -5 -2 -10 4 -10 5 0 13 5 16 10 3 6 2 10 -4 10 -5 0
-13 -4 -16 -10z"/>
<path d="M3892 7992 c-12 -2 -20 -8 -16 -13 3 -6 -3 -20 -14 -32 -11 -12 -23
-33 -27 -47 -4 -14 -14 -33 -23 -43 -14 -16 -14 -19 0 -33 18 -18 40 -11 32
10 -3 8 12 28 34 47 42 37 68 87 38 76 -19 -7 -21 4 -4 21 15 15 9 19 -20 14z"/>
<path d="M4608 7953 c7 -3 16 -2 19 1 4 3 -2 6 -13 5 -11 0 -14 -3 -6 -6z"/>
<path d="M3490 7800 c0 -5 7 -10 16 -10 8 0 12 5 9 10 -3 6 -10 10 -16 10 -5
0 -9 -4 -9 -10z"/>
<path d="M4640 7254 c0 -14 4 -23 10 -19 6 3 10 15 10 26 0 10 -4 19 -10 19
-5 0 -10 -12 -10 -26z"/>
<path d="M5513 7148 c-15 -19 -23 -48 -15 -48 5 0 21 14 37 30 27 28 27 30 8
30 -11 0 -25 -6 -30 -12z"/>
<path d="M5135 7100 c-3 -5 -15 -10 -26 -10 -10 0 -19 -4 -19 -10 0 -5 4 -10
10 -10 5 0 7 -7 4 -15 -4 -9 0 -15 9 -15 8 0 17 6 20 13 3 9 8 9 21 -2 20 -17
21 -15 29 27 6 29 4 32 -18 32 -13 0 -27 -4 -30 -10z"/>
<path d="M3940 6939 c-33 -13 -35 -16 -20 -34 10 -12 10 -15 -1 -15 -11 0 -11
-2 1 -10 16 -10 57 -3 78 13 11 9 11 12 -5 18 -15 6 -14 8 7 9 l25 1 -25 14
c-29 17 -28 17 -60 4z"/>
<path d="M4934 6905 c-4 -8 -16 -15 -28 -15 -12 0 -41 -9 -64 -20 -22 -11 -53
-20 -67 -20 -25 0 -35 -23 -15 -35 6 -4 7 -11 4 -17 -4 -7 7 -8 36 -3 43 7 92
28 91 39 -1 9 38 46 49 46 6 0 10 2 10 4 0 2 3 11 6 20 3 9 1 16 -5 16 -7 0
-14 -7 -17 -15z"/>
<path d="M3395 6685 c-5 -2 -50 -7 -100 -10 -84 -7 -87 -8 -60 -20 l30 -12
-44 -14 c-34 -10 -39 -14 -25 -20 31 -11 -30 -24 -111 -23 -71 0 -139 24 -205
71 -24 17 -25 17 -10 -1 23 -29 153 -86 197 -86 21 0 56 -3 78 -7 57 -9 19
-21 -69 -22 -92 -1 -77 -12 26 -20 l83 -6 -40 -23 -40 -23 45 7 c25 3 64 14
87 24 23 10 44 16 47 12 3 -3 6 0 6 6 0 6 9 14 20 17 11 4 32 17 45 31 13 13
29 24 35 24 5 0 10 5 10 10 0 6 8 10 18 10 15 -1 15 -2 1 -13 -30 -23 -47 -72
-48 -136 0 -72 19 -119 74 -180 19 -21 44 -59 55 -84 27 -60 62 -85 119 -81
50 3 70 16 53 36 -19 24 -3 64 34 81 34 17 42 31 24 42 -6 4 -4 17 5 35 8 16
15 36 15 44 0 15 -123 183 -178 244 -22 24 -38 32 -63 32 -29 1 -31 2 -16 11
38 22 -49 61 -98 44z m178 -165 c-6 -23 -19 -26 -26 -6 -6 16 1 26 19 26 7 0
10 -8 7 -20z m12 -269 c-15 -31 -55 -44 -55 -18 0 11 61 58 68 52 2 -2 -4 -17
-13 -34z"/>
<path d="M6652 6254 c9 -9 21 -13 27 -9 16 10 3 25 -22 25 -20 0 -20 -1 -5
-16z"/>
<path d="M6756 6143 c3 -16 8 -41 11 -58 3 -16 16 -38 30 -48 26 -20 43 -16
26 5 -5 7 -10 29 -11 48 -2 26 0 31 8 20 8 -13 10 -13 10 2 0 17 -49 58 -69
58 -7 0 -9 -10 -5 -27z"/>
<path d="M4063 5736 c-18 -6 -43 -22 -56 -34 -13 -12 -28 -22 -34 -22 -6 0
-41 -29 -77 -64 -37 -35 -73 -67 -81 -70 -8 -3 -15 -11 -15 -18 0 -7 -9 -19
-20 -26 -26 -16 -45 0 -65 57 -16 47 -74 138 -91 145 -7 3 -14 -16 -18 -55 -5
-51 -3 -65 17 -94 12 -19 29 -37 39 -40 9 -3 29 -22 44 -43 16 -20 38 -47 49
-60 22 -26 35 -79 24 -102 -4 -8 -9 -28 -12 -45 -7 -43 -35 -105 -48 -105 -5
0 -7 -4 -4 -10 3 -5 -6 -25 -20 -44 -14 -19 -25 -38 -24 -42 3 -19 -2 -31 -20
-50 -27 -29 -44 -64 -31 -64 14 0 13 -37 -2 -44 -7 -3 -2 -3 12 1 22 5 23 4
12 -10 -8 -9 -12 -24 -11 -34 1 -10 -4 -31 -10 -48 -27 -64 -20 -79 78 -155
61 -47 82 -74 79 -100 -2 -17 2 -25 12 -25 8 0 21 -6 28 -13 8 -7 18 -10 23
-7 5 4 9 1 9 -4 0 -15 43 -14 58 1 8 8 12 9 12 1 0 -6 8 -9 19 -6 21 5 110
-80 112 -107 1 -8 5 1 10 20 4 19 5 52 2 73 -5 34 7 51 21 29 2 -4 17 -8 33
-7 15 0 34 -5 41 -12 7 -7 21 -13 31 -13 29 0 54 -35 47 -66 -4 -14 -9 -24
-13 -21 -3 3 -14 -3 -26 -13 -13 -13 -28 -18 -44 -14 -16 4 -23 2 -23 -9 0
-12 11 -14 57 -10 43 4 76 16 128 45 38 22 72 41 73 43 2 2 -11 11 -28 20 -23
12 -35 14 -43 6 -6 -6 -15 -11 -21 -11 -5 0 -1 6 10 14 11 9 30 12 47 9 16 -3
27 -1 27 6 0 6 -9 11 -19 11 -11 0 -23 4 -26 10 -3 5 0 7 8 4 8 -3 18 0 23 7
4 7 2 15 -5 17 -14 5 25 42 45 42 7 0 11 6 9 13 -6 13 48 77 64 77 6 0 11 6
11 14 0 7 10 16 23 20 18 5 20 8 7 16 -13 8 -11 11 8 16 12 4 22 13 22 20 0 8
4 14 9 14 5 0 13 10 17 23 10 31 37 66 51 67 6 0 15 9 18 21 9 28 38 56 53 51
7 -2 12 4 12 13 0 10 18 24 45 36 25 11 57 31 71 44 15 14 30 25 34 25 3 0 14
26 24 58 17 51 107 182 126 182 15 0 -3 50 -21 55 -23 8 -89 -4 -89 -16 0 -5
-5 -9 -11 -9 -30 0 -140 -97 -284 -251 -175 -187 -200 -209 -239 -209 -14 0
-25 -5 -23 -11 1 -6 -4 -14 -12 -17 -10 -3 -12 0 -8 12 4 10 7 24 7 32 0 8 7
14 15 14 8 0 15 5 15 10 0 6 -11 10 -25 10 -14 0 -25 -6 -25 -13 0 -20 -33
-47 -56 -47 -16 1 -15 3 6 15 l25 14 -25 1 c-14 0 -38 -11 -54 -25 -16 -14
-36 -25 -45 -25 -9 0 -26 -7 -37 -15 -12 -8 -24 -12 -27 -9 -3 3 -16 -1 -29
-9 -12 -8 -38 -18 -55 -22 -18 -4 -33 -11 -33 -16 0 -12 9 -11 65 6 31 9 54
11 64 5 13 -7 10 -9 -11 -10 -15 0 -30 -4 -33 -10 -3 -5 -17 -10 -31 -10 -15
0 -24 -6 -24 -16 0 -11 -6 -13 -19 -9 -11 3 -22 1 -26 -5 -3 -5 -1 -10 5 -10
6 0 8 -5 5 -10 -4 -7 -12 -7 -25 0 -10 5 -35 10 -54 10 -31 0 -39 6 -62 42
-95 150 -98 176 -39 363 51 162 70 205 86 205 6 0 24 9 40 21 16 11 33 18 39
14 12 -7 41 8 76 40 15 14 33 25 40 25 8 0 14 4 14 9 0 8 67 23 169 37 40 6
123 32 106 34 -5 1 10 9 35 18 36 14 50 28 77 73 27 46 32 60 24 80 -5 13 -10
20 -11 14 0 -5 -4 -4 -9 4 -8 12 -15 9 -41 -12 -41 -35 -66 -34 -148 5 -37 17
-78 33 -91 34 -13 2 -31 9 -40 17 -9 8 -22 12 -28 10 -7 -3 -13 0 -13 6 0 13
-15 12 -57 -3z m122 -946 c-3 -5 -11 -10 -16 -10 -6 0 -7 5 -4 10 3 6 11 10
16 10 6 0 7 -4 4 -10z"/>
<path d="M5523 5585 c5 -11 0 -13 -24 -8 -24 5 -28 3 -23 -11 8 -20 -23 -33
-39 -17 -7 7 -7 11 -2 9 6 -2 11 2 13 7 1 6 -2 10 -8 9 -5 -1 -17 -2 -25 -2
-20 -3 -19 -22 3 -38 15 -12 13 -13 -12 -4 -30 11 -56 7 -56 -7 0 -4 19 -9 42
-10 23 -2 46 -7 51 -12 11 -11 52 5 90 35 33 27 37 64 6 64 -14 0 -19 -5 -16
-15z"/>
<path d="M7056 5522 c-13 -21 -34 -172 -24 -172 5 0 6 -4 3 -10 -3 -5 -2 -10
3 -10 6 0 12 -11 16 -23 11 -47 116 -153 116 -118 0 5 -5 11 -11 13 -11 4 4
85 23 121 7 14 3 26 -17 48 -14 17 -25 36 -25 43 0 7 -9 21 -20 31 -11 10 -20
31 -20 48 0 21 -4 28 -14 24 -8 -3 -16 -1 -19 6 -2 8 -6 7 -11 -1z"/>
<path d="M6380 5130 c0 -5 9 -10 21 -10 11 0 17 5 14 10 -3 6 -13 10 -21 10
-8 0 -14 -4 -14 -10z"/>
<path d="M4014 4936 c-10 -8 -17 -16 -14 -19 3 -2 14 4 24 14 23 22 18 25 -10
5z"/>
<path d="M3946 4928 c3 -5 10 -6 15 -3 13 9 11 12 -6 12 -8 0 -12 -4 -9 -9z"/>
<path d="M4231 4920 c-13 -11 -29 -20 -37 -20 -8 0 -14 -5 -14 -11 0 -16 42 0
69 27 29 29 16 31 -18 4z"/>
<path d="M4020 4900 c-9 -6 -10 -10 -3 -10 6 0 15 5 18 10 8 12 4 12 -15 0z"/>
<path d="M4140 4900 c-9 -6 -10 -10 -3 -10 6 0 15 5 18 10 8 12 4 12 -15 0z"/>
<path d="M4278 4903 c7 -3 16 -2 19 1 4 3 -2 6 -13 5 -11 0 -14 -3 -6 -6z"/>
<path d="M3946 4885 c-11 -8 -15 -15 -9 -15 19 0 43 12 43 21 0 13 -12 11 -34
-6z"/>
<path d="M3990 4860 c-8 -5 -11 -12 -7 -16 4 -4 13 -2 19 4 15 15 7 24 -12 12z"/>
<path d="M4015 4830 c-13 -6 -15 -9 -5 -9 8 0 22 4 30 9 18 12 2 12 -25 0z"/>
<path d="M5367 4808 c4 -22 3 -29 -5 -24 -7 4 -12 4 -12 1 0 -14 29 -61 48
-78 20 -18 20 -18 27 2 3 12 12 21 20 21 17 0 -4 45 -40 84 -33 35 -46 33 -38
-6z"/>
<path d="M7031 4734 c0 -11 3 -14 6 -6 3 7 2 16 -1 19 -3 4 -6 -2 -5 -13z"/>
<path d="M6999 4713 c-1 -5 -2 -12 -4 -18 -1 -5 -3 -16 -3 -24 -2 -11 -5 -11
-19 0 -15 13 -16 11 -10 -18 4 -18 3 -33 -2 -33 -5 0 -4 -11 2 -25 13 -28 27
-33 27 -10 0 8 4 15 8 15 11 0 42 66 42 89 0 22 -38 43 -41 24z"/>
<path d="M7131 4613 c-7 -3 -40 -32 -73 -64 -33 -33 -66 -59 -73 -59 -7 0 -15
-4 -17 -9 -1 -5 -10 -11 -18 -13 -22 -5 -40 -24 -40 -43 0 -11 6 -15 18 -11
19 6 35 -2 45 -24 4 -8 18 -33 31 -55 47 -75 85 -153 84 -172 0 -10 3 -30 7
-45 8 -30 -3 -36 -24 -15 -7 6 -11 8 -10 2 4 -15 -11 -55 -20 -55 -5 0 -18
-22 -30 -50 l-21 -50 21 -42 c12 -24 32 -58 46 -75 21 -29 26 -31 43 -20 11 6
20 20 20 30 0 10 4 16 9 12 6 -3 9 18 8 52 -2 54 0 58 19 55 16 -2 25 5 34 27
11 27 9 36 -14 81 -14 27 -26 58 -26 68 0 11 -9 30 -19 44 -11 13 -23 37 -26
51 -4 15 -11 27 -15 27 -6 0 -32 51 -36 70 0 3 -6 18 -12 33 -15 35 -16 97 -2
97 6 0 10 9 10 21 0 11 5 17 10 14 6 -3 13 0 16 9 5 13 11 12 45 -6 21 -11 39
-27 39 -35 0 -9 6 -13 15 -9 9 3 24 -3 35 -14 20 -20 20 -20 20 -1 0 11 -4 22
-10 26 -5 3 -17 30 -26 59 -20 62 -43 96 -63 89z"/>
<path d="M4060 4360 c0 -6 7 -10 15 -10 8 0 15 2 15 4 0 2 -7 6 -15 10 -8 3
-15 1 -15 -4z"/>
<path d="M6165 4084 c-4 -16 -9 -45 -11 -64 -3 -19 -7 -41 -9 -48 -5 -13 77
-102 94 -102 5 0 11 -9 14 -20 9 -33 25 -23 38 23 6 23 14 49 18 57 5 8 5 24
1 34 -6 17 -7 18 -13 3 -8 -22 -33 -22 -43 1 -4 9 -7 20 -6 24 1 4 -7 12 -18
18 -11 6 -20 19 -20 30 0 10 -5 22 -11 25 -6 4 -14 16 -18 28 -7 19 -8 19 -16
-9z"/>
<path d="M5570 4079 c0 -15 5 -20 22 -17 13 2 23 11 24 21 1 12 1 13 -3 2 -6
-19 -23 -20 -23 0 0 8 -4 15 -10 15 -5 0 -10 -9 -10 -21z"/>
<path d="M5526 4025 c-4 -16 -1 -34 9 -48 8 -12 15 -19 16 -17 0 3 2 24 3 48
3 47 -17 60 -28 17z"/>
<path d="M6245 4020 c3 -5 8 -10 11 -10 2 0 4 5 4 10 0 6 -5 10 -11 10 -5 0
-7 -4 -4 -10z"/>
<path d="M5500 3965 c0 -8 9 -19 20 -25 11 -6 20 -8 20 -5 0 3 -9 14 -20 25
-15 15 -20 16 -20 5z"/>
<path d="M6737 3840 c10 -11 18 -20 19 -20 1 0 0 9 -3 20 -3 11 -12 20 -19 20
-11 0 -10 -5 3 -20z"/>
<path d="M5735 3820 c-3 -5 -1 -10 4 -10 6 0 11 5 11 10 0 6 -2 10 -4 10 -3 0
-8 -4 -11 -10z"/>
<path d="M6094 3768 c-4 -13 -11 -26 -17 -29 -12 -8 -2 -39 13 -39 6 0 10 8 9
18 -2 9 2 27 9 39 7 13 8 24 3 28 -5 3 -13 -5 -17 -17z"/>
<path d="M6887 3706 c-10 -74 -9 -84 14 -91 12 -4 39 -25 59 -46 20 -22 44
-39 52 -39 9 0 21 -6 27 -14 7 -8 21 -12 31 -9 11 3 31 -2 45 -11 25 -17 26
-17 19 9 -5 20 -3 24 9 20 9 -4 16 2 20 16 7 24 -3 43 -10 22 -3 -7 -14 -13
-25 -13 -12 0 -27 -8 -34 -17 -13 -17 -13 -17 -14 0 0 9 -7 17 -15 17 -15 0
-16 24 -1 48 12 20 -2 28 -24 14 -31 -19 -43 -15 -36 13 9 37 -1 48 -27 30
-12 -8 -25 -15 -29 -15 -7 0 -39 64 -50 100 -3 8 -8 -7 -11 -34z"/>
<path d="M4343 3714 c12 -13 -36 -85 -68 -100 -30 -14 -33 -20 -44 -87 -7 -40
-14 -83 -15 -97 -1 -14 -8 -35 -14 -47 -7 -12 -12 -30 -12 -39 0 -10 -7 -26
-16 -36 -12 -12 -14 -21 -7 -30 6 -7 7 -22 3 -32 -4 -14 -9 -16 -14 -8 -10 16
-27 5 -20 -12 3 -8 -4 -23 -16 -34 -13 -12 -17 -22 -11 -26 6 -4 17 1 26 11 9
10 46 50 82 88 77 82 89 106 98 200 9 80 28 127 49 119 10 -4 18 6 25 32 9 32
7 43 -10 71 -11 18 -26 33 -31 33 -6 0 -9 -3 -5 -6z"/>
<path d="M4061 3131 c-7 -5 -11 -17 -9 -27 4 -17 5 -17 17 4 14 27 12 35 -8
23z"/>
<path d="M4018 3083 c7 -3 16 -2 19 1 4 3 -2 6 -13 5 -11 0 -14 -3 -6 -6z"/>
<path d="M7122 2960 c0 -14 2 -19 5 -12 2 6 2 18 0 25 -3 6 -5 1 -5 -13z"/>
<path d="M5970 2651 c0 -11 4 -21 9 -21 18 0 21 18 6 30 -13 10 -15 9 -15 -9z"/>
<path d="M5830 2541 c0 -5 7 -14 15 -21 16 -14 18 -10 9 14 -6 17 -24 22 -24
7z"/>
<path d="M5786 2504 c-8 -21 -8 -26 2 -20 4 2 9 -16 10 -41 1 -26 4 -55 8 -65
8 -28 24 -11 22 25 0 18 2 51 6 75 7 40 7 42 -17 42 -14 0 -28 -7 -31 -16z"/>
<path d="M3474 2345 c-4 -8 -1 -22 6 -30 10 -12 10 -18 -1 -32 -15 -18 -16
-18 36 3 17 7 21 -21 5 -31 -13 -8 -13 -35 -1 -35 5 0 17 7 26 16 8 9 22 13
30 10 10 -4 15 1 15 14 0 11 -6 20 -12 20 -7 0 -24 14 -37 31 -33 41 -59 55
-67 34z"/>
<path d="M3460 2235 c-10 -12 -10 -15 3 -15 8 0 17 7 21 15 3 8 2 15 -3 15 -5
0 -14 -7 -21 -15z"/>
<path d="M5660 2243 c0 -5 5 -15 10 -23 8 -12 10 -11 10 8 0 12 -4 22 -10 22
-5 0 -10 -3 -10 -7z"/>
<path d="M3583 2218 c-25 -12 -32 -31 -8 -22 11 5 13 2 9 -10 -10 -26 12 -18
24 9 18 40 15 42 -25 23z"/>
<path d="M3640 2160 c0 -5 5 -10 10 -10 6 0 10 5 10 10 0 6 -4 10 -10 10 -5 0
-10 -4 -10 -10z"/>
<path d="M3586 2145 c-11 -8 -18 -17 -15 -19 2 -2 15 4 28 15 27 22 15 26 -13
4z"/>
<path d="M3540 2140 c-8 -5 -12 -12 -9 -15 4 -3 12 1 19 10 14 17 11 19 -10 5z"/>
<path d="M3678 2127 c-9 -7 -20 -25 -23 -40 -4 -15 -24 -44 -44 -64 -21 -21
-43 -47 -49 -58 -9 -16 -13 -18 -24 -7 -8 8 -9 15 -3 20 6 4 16 21 24 37 7 17
18 38 23 49 7 12 6 16 -1 11 -6 -3 -11 0 -12 7 0 7 -4 3 -9 -9 -5 -13 -14 -23
-20 -23 -5 0 -10 -7 -10 -15 0 -8 -5 -25 -11 -38 -8 -18 -17 -23 -32 -19 -17
4 -19 2 -14 -18 4 -16 -1 -28 -16 -41 l-22 -19 24 -19 c15 -12 22 -24 18 -35
-10 -25 -27 -19 -27 10 0 16 -5 24 -12 22 -22 -8 -20 -35 5 -60 l25 -25 27 34
c16 20 25 42 22 53 -5 20 17 60 34 60 5 0 9 -7 9 -15 0 -9 6 -12 15 -9 8 4 15
12 15 19 0 8 10 15 22 17 15 2 22 11 25 33 2 17 12 37 22 45 21 17 43 74 33
87 -4 4 3 -1 16 -11 14 -12 22 -30 22 -49 0 -25 2 -28 15 -17 12 10 13 16 4
26 -6 8 -9 23 -6 34 3 13 -1 24 -13 30 -24 13 -31 12 -52 -3z"/>
<path d="M3471 2097 c-11 -14 -6 -27 10 -27 5 0 13 9 19 20 8 16 8 20 -3 20
-8 0 -20 -6 -26 -13z"/>
<path d="M4205 2050 c-3 -5 -1 -10 4 -10 6 0 11 5 11 10 0 6 -2 10 -4 10 -3 0
-8 -4 -11 -10z"/>
<path d="M3694 2012 c-27 -21 -39 -58 -23 -67 16 -10 35 14 42 53 7 37 8 37
-19 14z"/>
<path d="M3402 1958 c-16 -16 -15 -28 3 -28 8 0 15 2 15 4 0 2 3 11 6 20 7 19
-7 21 -24 4z"/>
<path d="M3505 1800 c-3 -5 1 -10 10 -10 9 0 13 5 10 10 -3 6 -8 10 -10 10 -2
0 -7 -4 -10 -10z"/>
<path d="M7025 1426 c-11 -6 -24 -17 -28 -23 -8 -13 -10 -25 -3 -20 2 1 14 -7
27 -18 l22 -20 -5 23 c-4 15 -2 22 8 22 14 0 20 35 7 43 -5 3 -17 0 -28 -7z"/>
<path d="M4270 1190 c0 -5 5 -10 10 -10 6 0 10 5 10 10 0 6 -4 10 -10 10 -5 0
-10 -4 -10 -10z"/>
<path d="M6587 1090 c-4 -15 0 -20 14 -20 21 0 22 1 13 24 -8 22 -21 20 -27
-4z"/>
<path d="M6070 1086 c-6 -9 -10 -21 -8 -28 3 -8 9 -4 17 10 15 28 9 39 -9 18z"/>
<path d="M6180 1019 c0 -5 5 -7 10 -4 6 3 10 8 10 11 0 2 -4 4 -10 4 -5 0 -10
-5 -10 -11z"/>
<path d="M6350 1010 c0 -5 5 -10 10 -10 6 0 10 5 10 10 0 6 -4 10 -10 10 -5 0
-10 -4 -10 -10z"/>
</g>
</svg>
